<svg id="Layer_1" data-name="Layer 1" xmlns="http://www.w3.org/2000/svg" viewBox="0 0 284 134"><defs><style>.cls-1{fill:#9a7c88;opacity:0.3;}.cls-2{fill:#23203a;}.cls-3{fill:#656c9a;}.cls-4{fill:#7d86b2;}.cls-5{fill:#ffad97;}.cls-6{fill:#ffc5b3;}.cls-7{fill:#bf9b90;}.cls-8{fill:#dfc4b7;}.cls-9{fill:#efd9d0;}.cls-10{fill:#ea6f53;}.cls-11{fill:#ceafa3;}.cls-12{fill:#34324c;}.cls-13{fill:#fff;}.cls-14{fill:#44435e;}.cls-15{fill:#4f4f68;}.cls-16{fill:#ff8f80;}.cls-17{fill:#bc9c91;}.cls-18{fill:#a6acc6;}.cls-19{fill:#bf9c91;}.cls-20{fill:#ad887f;}.cls-21{fill:#ce4638;}.cls-22{fill:#bc978b;}.cls-23{fill:#ff816c;}.cls-24{fill:#e05a44;}.cls-25{fill:#545470;}.cls-26{fill:#8c7988;}.cls-27{fill:#ce4132;}.cls-28{fill:#575770;}.cls-29{fill:#bf9e94;}.cls-30{fill:#d6543e;}.cls-31{fill:#7f0057;}</style></defs><path class="cls-1" d="M104.63,97.93c0,2.5-3.8,4.52-8.49,4.52s-8.48-2-8.48-4.52,3.79-4.51,8.48-4.51S104.63,95.44,104.63,97.93Z"/><path class="cls-1" d="M190.64,74.92c0,3-4.52,5.38-10.1,5.38s-10.1-2.41-10.1-5.38,4.52-5.37,10.1-5.37S190.64,72,190.64,74.92Z"/><path class="cls-1" d="M206.17,64.81c0,2.34-3.57,4.24-8,4.24s-8-1.9-8-4.24,3.57-4.24,8-4.24S206.17,62.47,206.17,64.81Z"/><path class="cls-1" d="M143.87,23.91c0,2.34-3.57,4.23-8,4.23s-8-1.89-8-4.23,3.57-4.24,8-4.24S143.87,21.57,143.87,23.91Z"/><path class="cls-1" d="M151.82,16c0,2.34-3.57,4.23-8,4.23s-8-1.89-8-4.23,3.56-4.24,8-4.24S151.82,13.65,151.82,16Z"/><polygon class="cls-1" points="115.34 38.84 96.4 49.73 86.4 43.96 105.35 33.11 115.34 38.84"/><path class="cls-1" d="M153.52,120.34a17.37,17.37,0,0,0-2.65.2c-.19-1-1.37-1.93-3-2.39l6.12-3.53-10-5.72-19,10.85,10,5.77,5.34-3.08a7.27,7.27,0,0,0,4.06,1.4,2.94,2.94,0,0,0-.49,1.6c0,2.82,4.3,5.11,9.59,5.11s9.6-2.29,9.6-5.11S158.82,120.34,153.52,120.34Z"/><polygon class="cls-1" points="128.22 30.88 118.35 36.6 110.23 31.88 120.12 26.19 128.22 30.88"/><polygon class="cls-1" points="93.26 61.11 85.38 65.67 74.99 59.52 82.89 55 93.26 61.11"/><path class="cls-1" d="M206.4,90l-6.67,3.82a5.86,5.86,0,0,1-5.88,0l-5.41-3.21a1.13,1.13,0,0,1,0-2l9.6-5.46a1.66,1.66,0,0,1,1.67,0l6.7,3.94A1.67,1.67,0,0,1,206.4,90Z"/><path class="cls-1" d="M181.23,65.26c5.61-3.24,4.9-9-1.58-12.7L172.09,48c-6.49-3.74-16.38-4.15-22-.91L95.85,78.41c-5.62,3.24-4.91,9,1.58,12.69l5.17,3c6.48,3.74,18.77,5.69,24.38,2.45Z"/><path class="cls-1" d="M195.64,43.21c0,2.54-3.87,4.61-8.65,4.61s-8.66-2.07-8.66-4.61,3.87-4.6,8.66-4.6S195.64,40.67,195.64,43.21Z"/><path class="cls-2" d="M181.94,40.29s-.47.51-1.11,1.13l-1.31,1.27c-.32.31-.06.6.55.57a10.92,10.92,0,0,0,2.41-.52,12.46,12.46,0,0,0,1.81-.94,1.2,1.2,0,0,0,.54-.68v-.95Z"/><path class="cls-2" d="M189.49,41.48s-.11,1-.18,2.21.11,2.31.48,2.45,1.45.11,2.06-1.59a6.76,6.76,0,0,0,.24-3.37Z"/><path class="cls-3" d="M190.89,24.39A5.88,5.88,0,0,0,189,19.31c.15-1.18-5.87,0-5.87,0s-.63,6.87-1.12,10.21a76.2,76.2,0,0,0-.32,10.58s.07.82,1.49.82a4.67,4.67,0,0,0,1.92-.55.74.74,0,0,0,.41-.9c-.15-.4.21-.75,0-1.46a7.38,7.38,0,0,1-.41-2.11,25.7,25.7,0,0,1,.17-3.79l1.26-6.24s.71,5.67,1,7.51.42,2.94.77,4.44c.15.64.52.83.67,1.65a13.39,13.39,0,0,1-.13,1.94c0,.82,2,1.12,3.24.49s1.29-1,1-1.33-.38-.2-.22-1.77-.75-3.91-1.71-6.07C191,29.92,190.79,26,190.89,24.39Z"/><path class="cls-3" d="M181.81,19.17c.66-1.09,1.2-2,1.2-2,.16-.19.07-.58.23-.8.6-.69.79-3.93.79-3.93L185.14,9s-1.25-.9-2.35.87-2.34,6.61-2.34,6.61S181.32,19.35,181.81,19.17Z"/><path class="cls-4" d="M182.09,23.69a3.89,3.89,0,0,0,2,1.44,7.38,7.38,0,0,0,.83-1.53,15.42,15.42,0,0,0,.53,2,10.19,10.19,0,0,0,5.75-.89c.2-1.44-.49-5.26-.54-6-.14-2.41.33-6.19.25-6.82-.14-1.06-2.55-2.21-2.55-2.21a3.88,3.88,0,0,0-3.47-.62,6.16,6.16,0,0,0-2.11,3.68c-.12,1.07,0,4.34,0,6.7C182.79,19.81,182.13,23.21,182.09,23.69Z"/><path class="cls-3" d="M186.19,11.11a4,4,0,0,0-.68,1.61c0,.54.07,3.57,0,4.59,0,.54-.32,2.29-.34,3.81a12.2,12.2,0,0,1-.23,2.48s-.09-1.27-.11-1.91.24-3.39.31-4.13,0-4.4,0-4.84a5.71,5.71,0,0,1,.59-1.69Z"/><path class="cls-5" d="M185.59,9.05l-.1,1.32a1.57,1.57,0,0,0,.27,1A21.9,21.9,0,0,0,188.25,10l-.47-2.58Z"/><path class="cls-6" d="M188,4.62a2.18,2.18,0,0,0-3.59.26c-1.23,1.82-.07,4.79,1,4.62A4.22,4.22,0,0,0,188,7.88,3.3,3.3,0,0,0,188,4.62Z"/><path class="cls-2" d="M184,5.49a1.81,1.81,0,0,0,1.63.92,4.11,4.11,0,0,0,1.47-.2L187,7.3a.86.86,0,0,0,.3,0c.11-.42.29-.51.49-.34s.2,1,.2,1a2.82,2.82,0,0,0,.86-2,2.84,2.84,0,0,0-2.12-2.65A2.63,2.63,0,0,0,184,4.56,1,1,0,0,0,184,5.49Z"/><path class="cls-6" d="M186.62,20.34a4.26,4.26,0,0,0-.48.43,1.79,1.79,0,0,1-1.4.33,3.52,3.52,0,0,1-1-1.48c0-.26-.05-.47.41-.51,0-.59,1.9-.34,1.9-.34S186.55,18.86,186.62,20.34Z"/><polygon class="cls-7" points="181.66 20.28 185.28 22.4 182.21 17.18 178.58 15.06 181.66 20.28"/><polygon class="cls-8" points="185.28 22.4 185.62 22.2 182.54 16.98 182.21 17.18 185.28 22.4"/><polygon class="cls-9" points="178.58 15.06 178.92 14.85 182.54 16.98 182.21 17.18 178.58 15.06"/><path class="cls-10" d="M184.1,19.12l.65-2.45a.18.18,0,1,1,.34.09l-.63,2.4Z"/><path class="cls-6" d="M180,17.4c.68-.17,1,.88,1.32,1.61s-.44.81-1.21.17S179.21,17.6,180,17.4Z"/><path class="cls-3" d="M192.77,15.9c-.53-2.4-1.1-4.39-2.53-5-.83-.36-1.36,2-1.21,3.31a6.44,6.44,0,0,0,1.32,3.16,19.56,19.56,0,0,0-4.46,1.11,7.74,7.74,0,0,1,.78,2.44,41.51,41.51,0,0,0,5.91-1.24C193.3,19.33,193.14,17.61,192.77,15.9Z"/><path class="cls-3" d="M188,8.91a1.89,1.89,0,0,1,.61.51,4.05,4.05,0,0,1,.38.67l-2.45,2.14-.82-.85Z"/><path class="cls-3" d="M185.51,9.76a6.31,6.31,0,0,0,.25,1.62l-.93.24S184.6,10.23,185.51,9.76Z"/><polygon class="cls-11" points="112.09 26.05 118.26 29.59 118.26 35.56 112.09 32.02 112.09 26.05"/><polygon class="cls-8" points="126.46 24.93 118.26 29.59 118.26 35.56 126.46 30.91 126.46 24.93"/><polygon class="cls-12" points="119.08 30.95 125.5 27.31 125.5 30.29 119.08 33.94 119.08 30.95"/><polygon class="cls-13" points="119.49 32.78 125.12 29.58 125.12 30.06 119.49 33.26 119.49 32.78"/><polygon class="cls-2" points="112.09 26.07 116.47 28.55 118.26 29.59 118.26 30.52 112.09 27 112.09 26.07"/><polygon class="cls-12" points="126.46 24.96 118.26 29.62 118.26 30.52 126.46 25.86 126.46 24.96"/><polygon class="cls-14" points="126.46 24.96 121.95 22.41 113.88 27.07 118.26 29.62 126.46 24.96"/><polygon class="cls-12" points="124.27 23.17 116.07 27.83 116.07 28.37 124.27 23.72 124.27 23.17"/><polygon class="cls-12" points="123.23 25.32 119.75 27.34 119.75 27.88 123.23 25.87 123.23 25.32"/><polygon class="cls-15" points="124.27 23.17 120.16 20.84 112.09 25.5 116.07 27.83 118.34 26.54 119.75 27.35 123.25 25.32 121.88 24.53 124.27 23.17"/><path class="cls-11" d="M123.71,25.24c0,.16.24.28.53.28s.54-.12.54-.28-.24-.28-.54-.28S123.71,25.08,123.71,25.24Z"/><rect class="cls-11" x="123.71" y="25.11" width="1.06" height="0.13"/><path class="cls-8" d="M123.71,25.11c0,.15.24.28.53.28s.54-.13.54-.28-.24-.28-.54-.28S123.71,25,123.71,25.11Z"/><path class="cls-10" d="M123.81,25.08c0,.13.2.23.44.23s.43-.1.43-.23-.2-.23-.43-.23S123.81,25,123.81,25.08Z"/><polygon class="cls-10" points="124.68 25.08 124.58 24.22 123.91 24.22 123.81 25.08 124.68 25.08"/><path class="cls-16" d="M123.91,24.22c0,.09.15.17.34.17s.33-.08.33-.17-.15-.18-.33-.18S123.91,24.12,123.91,24.22Z"/><path class="cls-11" d="M117.65,28.75c0,.16.24.28.53.28s.53-.12.53-.28-.23-.28-.53-.28S117.65,28.59,117.65,28.75Z"/><rect class="cls-11" x="117.65" y="28.62" width="1.06" height="0.13"/><path class="cls-8" d="M117.65,28.62c0,.16.24.28.53.28s.53-.12.53-.28-.23-.28-.53-.28S117.65,28.46,117.65,28.62Z"/><path class="cls-12" d="M117.75,28.59c0,.13.2.23.43.23s.43-.1.43-.23-.19-.23-.43-.23S117.75,28.47,117.75,28.59Z"/><polygon class="cls-12" points="118.61 28.59 118.52 27.73 117.85 27.73 117.75 28.59 118.61 28.59"/><path class="cls-15" d="M117.85,27.73c0,.09.15.17.33.17s.34-.08.34-.17-.15-.18-.34-.18S117.85,27.63,117.85,27.73Z"/><polygon class="cls-2" points="116.07 27.83 116.07 28.52 112.09 26.17 112.09 25.5 116.07 27.83"/><polygon class="cls-2" points="118.34 26.54 118.34 27.08 119.75 27.88 119.75 27.35 118.34 26.54"/><polygon class="cls-13" points="119.84 27.01 122.72 25.34 121.59 24.69 118.72 26.36 119.84 27.01"/><polygon class="cls-16" points="113 25.7 114.7 24.71 114.37 24.53 112.67 25.52 113 25.7"/><polygon class="cls-16" points="113.67 26.09 115.37 25.1 115.03 24.92 113.33 25.91 113.67 26.09"/><polygon class="cls-12" points="114.14 26.7 122.2 22 121.87 21.81 113.81 26.5 114.14 26.7"/><path class="cls-11" d="M121.59,23.24c0,.19.27.33.61.33s.62-.14.62-.33-.28-.32-.62-.32S121.59,23.06,121.59,23.24Z"/><rect class="cls-11" x="121.59" y="22.98" width="1.23" height="0.26"/><path class="cls-9" d="M121.59,23c0,.18.27.33.61.33s.62-.15.62-.33-.28-.33-.62-.33S121.59,22.78,121.59,23Z"/><path class="cls-11" d="M122.2,22.75c-.26,0-.47.11-.5.24v0c0-.15.23-.27.51-.27s.51.12.51.27a0,0,0,0,1,0,0C122.68,22.86,122.46,22.75,122.2,22.75Z"/><path class="cls-17" d="M122.2,23.23c-.26,0-.47-.1-.5-.24s.24-.24.5-.24.48.11.5.24S122.46,23.23,122.2,23.23Z"/><path class="cls-11" d="M120.17,24.06c0,.19.28.33.62.33s.61-.14.61-.33-.27-.32-.61-.32S120.17,23.88,120.17,24.06Z"/><rect class="cls-11" x="120.17" y="23.8" width="1.23" height="0.26"/><path class="cls-9" d="M120.17,23.78c0,.18.28.33.62.33s.61-.15.61-.33-.27-.33-.61-.33S120.17,23.6,120.17,23.78Z"/><path class="cls-11" d="M120.79,23.57c-.27,0-.48.11-.51.24v0c0-.15.22-.27.51-.27s.5.12.5.27v0C121.26,23.68,121.05,23.57,120.79,23.57Z"/><path class="cls-17" d="M120.79,24.05c-.27,0-.48-.1-.51-.24s.24-.24.51-.24.47.11.5.24S121.05,24.05,120.79,24.05Z"/><path class="cls-11" d="M118.7,24.93c0,.18.28.32.62.32s.61-.14.61-.32-.27-.33-.61-.33S118.7,24.74,118.7,24.93Z"/><rect class="cls-11" x="118.7" y="24.66" width="1.23" height="0.26"/><ellipse class="cls-9" cx="119.32" cy="24.64" rx="0.62" ry="0.33"/><path class="cls-11" d="M119.32,24.43c-.27,0-.48.11-.51.24v0c0-.15.22-.27.51-.27s.5.12.5.27v0C119.79,24.54,119.58,24.43,119.32,24.43Z"/><path class="cls-17" d="M119.32,24.91c-.27,0-.48-.1-.51-.24s.24-.24.51-.24.47.11.5.24S119.58,24.91,119.32,24.91Z"/><path class="cls-11" d="M117.28,25.75c0,.18.28.32.62.32s.62-.14.62-.32-.28-.33-.62-.33S117.28,25.56,117.28,25.75Z"/><rect class="cls-11" x="117.28" y="25.48" width="1.23" height="0.26"/><path class="cls-9" d="M117.28,25.46c0,.18.28.33.62.33s.62-.15.62-.33-.28-.32-.62-.32S117.28,25.28,117.28,25.46Z"/><path class="cls-11" d="M117.9,25.25c-.26,0-.48.11-.5.24a0,0,0,0,1,0,0c0-.15.23-.27.51-.27s.51.12.51.27v0C118.37,25.36,118.16,25.25,117.9,25.25Z"/><path class="cls-17" d="M117.9,25.73c-.26,0-.48-.1-.5-.24s.24-.24.5-.24.47.11.5.24S118.16,25.73,117.9,25.73Z"/><path class="cls-11" d="M115.71,26.62c0,.18.28.33.62.33s.62-.15.62-.33-.28-.32-.62-.32S115.71,26.44,115.71,26.62Z"/><rect class="cls-11" x="115.72" y="26.36" width="1.23" height="0.26"/><path class="cls-9" d="M115.71,26.34c0,.18.28.33.62.33s.62-.15.62-.33-.28-.33-.62-.33S115.71,26.16,115.71,26.34Z"/><path class="cls-11" d="M116.33,26.13c-.26,0-.48.1-.5.24,0,0,0,0,0,0s.23-.27.51-.27.51.12.51.27,0,0,0,0C116.8,26.23,116.59,26.13,116.33,26.13Z"/><path class="cls-17" d="M116.33,26.61c-.26,0-.48-.1-.5-.24s.24-.24.5-.24.47.1.5.24S116.59,26.61,116.33,26.61Z"/><path class="cls-12" d="M110.58,19.21l2-1.15a.59.59,0,0,0,.34-.47c0-.22-.19-.47-.53-.66l-3.16-1.82a2.79,2.79,0,0,0-1.35-.34,2.09,2.09,0,0,0-1,.23l-1,.55a4.23,4.23,0,0,1-.4-.24l1.15-.66a3.11,3.11,0,0,1,2.78.1l3.16,1.83a1.27,1.27,0,0,1,.73,1,1,1,0,0,1-.55.83l-1.86,1.07Z"/><path class="cls-2" d="M95.6,46.11a2.19,2.19,0,0,0,.91,1.75c.51.3.92,0,.92-.69a2.19,2.19,0,0,0-.92-1.75C96,45.13,95.6,45.44,95.6,46.11Z"/><polygon class="cls-2" points="95.25 45.77 95.96 45.35 97.11 47.91 96.37 48.34 95.25 45.77"/><path class="cls-12" d="M94.85,46.54a2.17,2.17,0,0,0,.92,1.75c.51.29.92,0,.92-.69a2.17,2.17,0,0,0-.92-1.75C95.26,45.56,94.85,45.87,94.85,46.54Z"/><path class="cls-13" d="M95.25,46.8a1.14,1.14,0,0,0,.46.89c.25.14.46,0,.46-.35a1.14,1.14,0,0,0-.46-.89C95.46,46.31,95.25,46.46,95.25,46.8Z"/><path class="cls-11" d="M96.78,45.49V47a7,7,0,0,1-.77.32c-.42.13-.58-.25-.45-.75s.5-1.5.5-1.5Z"/><polygon class="cls-8" points="96.78 45.49 97.53 45.06 97.53 46.57 96.78 47 96.78 45.49"/><polygon class="cls-9" points="97.36 44.9 96.78 45.23 96.2 44.89 96.06 45.07 96.78 45.49 97.53 45.06 97.36 44.9"/><path class="cls-2" d="M111.1,37.19a2.19,2.19,0,0,0,.91,1.75c.51.3.92,0,.92-.69A2.19,2.19,0,0,0,112,36.5C111.51,36.21,111.1,36.52,111.1,37.19Z"/><polygon class="cls-2" points="110.75 36.85 111.46 36.43 112.61 38.99 111.88 39.42 110.75 36.85"/><path class="cls-12" d="M110.36,37.62a2.19,2.19,0,0,0,.91,1.75c.51.29.92,0,.92-.69a2.17,2.17,0,0,0-.92-1.75C110.77,36.64,110.36,37,110.36,37.62Z"/><path class="cls-13" d="M110.75,37.88a1.14,1.14,0,0,0,.46.89c.26.14.46,0,.46-.35a1.08,1.08,0,0,0-.46-.88C111,37.39,110.75,37.54,110.75,37.88Z"/><path class="cls-11" d="M112.28,36.57v1.51a6.13,6.13,0,0,1-.77.32c-.41.13-.58-.25-.45-.75a15.6,15.6,0,0,1,.51-1.5Z"/><polygon class="cls-8" points="112.28 36.57 113.03 36.14 113.03 37.65 112.28 38.08 112.28 36.57"/><polygon class="cls-9" points="112.86 35.98 112.28 36.31 111.7 35.97 111.57 36.15 112.28 36.57 113.03 36.14 112.86 35.98"/><path class="cls-2" d="M88.58,42a2.19,2.19,0,0,0,.91,1.75c.51.29.92,0,.92-.69a2.19,2.19,0,0,0-.92-1.75C89,41,88.58,41.33,88.58,42Z"/><polygon class="cls-2" points="88.23 41.65 88.94 41.24 90.09 43.8 89.36 44.23 88.23 41.65"/><path class="cls-12" d="M87.84,42.43a2.21,2.21,0,0,0,.91,1.75c.51.29.92,0,.92-.69a2.17,2.17,0,0,0-.92-1.75C88.25,41.44,87.84,41.75,87.84,42.43Z"/><path class="cls-13" d="M88.23,42.69a1.1,1.1,0,0,0,.46.88c.26.15.46,0,.46-.34a1.11,1.11,0,0,0-.46-.89C88.44,42.2,88.23,42.35,88.23,42.69Z"/><path class="cls-11" d="M89.76,41.38v1.51a7,7,0,0,1-.77.32c-.41.13-.58-.25-.45-.75a15.6,15.6,0,0,1,.51-1.5Z"/><polygon class="cls-8" points="89.76 41.38 90.51 40.95 90.51 42.46 89.76 42.88 89.76 41.38"/><polygon class="cls-9" points="90.34 40.79 89.76 41.12 89.18 40.78 89.05 40.96 89.76 41.38 90.51 40.95 90.34 40.79"/><polygon class="cls-3" points="89.22 22.32 96.97 26.79 96.97 45.32 89.22 40.86 89.22 22.32"/><polygon class="cls-4" points="112.76 17.69 96.97 26.79 96.97 45.32 112.76 36.24 112.76 17.69"/><polygon class="cls-13" points="97.34 27.09 112.41 18.45 112.41 20.24 97.34 28.87 97.34 27.09"/><polygon class="cls-3" points="96.97 29.56 112.76 20.45 112.76 20.93 96.97 30.01 96.97 29.56"/><polygon class="cls-12" points="101.94 24.86 108.71 20.96 108.71 21.57 101.94 25.46 101.94 24.86"/><polygon class="cls-13" points="97.34 30.36 112.41 21.71 112.41 23.5 97.34 32.13 97.34 30.36"/><polygon class="cls-3" points="96.97 32.82 112.76 23.71 112.76 24.19 96.97 33.27 96.97 32.82"/><polygon class="cls-12" points="101.94 28.12 108.71 24.22 108.71 24.83 101.94 28.72 101.94 28.12"/><polygon class="cls-13" points="97.34 33.58 112.41 24.93 112.41 26.73 97.34 35.35 97.34 33.58"/><polygon class="cls-3" points="96.97 36.04 112.76 26.94 112.76 27.42 96.97 36.5 96.97 36.04"/><polygon class="cls-12" points="101.94 31.35 108.71 27.44 108.71 28.05 101.94 31.95 101.94 31.35"/><polygon class="cls-13" points="97.34 36.88 112.41 28.23 112.41 31.26 97.34 39.89 97.34 36.88"/><polygon class="cls-12" points="101.94 34.65 108.71 30.74 108.71 31.35 101.94 35.24 101.94 34.65"/><polygon class="cls-3" points="96.97 40.82 112.76 31.72 112.76 32.2 96.97 41.28 96.97 40.82"/><polygon class="cls-13" points="97.34 41.61 112.41 32.97 112.41 36 97.34 44.62 97.34 41.61"/><polygon class="cls-12" points="101.94 39.38 108.71 35.48 108.71 36.09 101.94 39.98 101.94 39.38"/><polygon class="cls-18" points="112.76 17.69 96.97 26.79 89.22 22.32 105.02 13.25 112.76 17.69"/><polygon class="cls-8" points="96.97 45.32 113.03 36.07 113.03 36.55 96.97 45.8 96.97 45.32"/><polygon class="cls-9" points="96.97 45.02 112.76 35.92 113.03 36.07 96.97 45.33 96.97 45.02"/><polygon class="cls-11" points="96.97 45.32 88.95 40.7 88.95 41.19 96.97 45.8 96.97 45.32"/><polygon class="cls-8" points="89.61 23.71 96.39 27.62 96.39 28.41 89.61 24.5 89.61 23.71"/><polygon class="cls-9" points="96.97 45.02 89.22 40.55 88.95 40.7 96.97 45.33 96.97 45.02"/><path class="cls-12" d="M89.31,24.64l.75-.43.17.37-.72.42a.57.57,0,0,0-.34.46.9.9,0,0,0,.53.66l3.15,1.82a2.67,2.67,0,0,0,2.36.11l.68-.4.18.36-.66.39a2.46,2.46,0,0,1-1.21.28,3.13,3.13,0,0,1-1.55-.39l-3.16-1.82a1.23,1.23,0,0,1-.72-1A1,1,0,0,1,89.31,24.64Z"/><path class="cls-12" d="M95.85,27.75A.29.29,0,0,0,96,28c.07,0,.13,0,.13-.1a.31.31,0,0,0-.13-.25C95.91,27.6,95.85,27.65,95.85,27.75Z"/><path class="cls-12" d="M90,24.31a.31.31,0,0,0,.13.25c.07.05.13,0,.13-.1a.33.33,0,0,0-.13-.25C90.08,24.17,90,24.21,90,24.31Z"/><path class="cls-19" d="M95.85,23.43a.7.7,0,0,1,.08-.14,1.35,1.35,0,0,1,1.18-.38,1.18,1.18,0,0,0,.78-.13c.37-.22,4.47-2.59,4.93-2.88l.87.5-4.93,2.85c-.15.09-.11.23-.08.35a.61.61,0,0,1-.3.69,1.4,1.4,0,0,1-1,.23.15.15,0,0,1,0-.06l.35-.45c.07-.09-.17-.25-.49-.35s-.57-.11-.66,0a4.32,4.32,0,0,0-.44.46l0,0v-.24Z"/><path class="cls-20" d="M95.85,23.43l.23.45v.24A.54.54,0,0,1,95.85,23.43Z"/><rect class="cls-20" x="95.79" y="23.43" width="0.31" height="0.24"/><path class="cls-19" d="M104.19,19.57a.68.68,0,0,0-.52-.28,1.22,1.22,0,0,0-.63.18l1,.18Z"/><path class="cls-19" d="M103,19.55a.91.91,0,0,1,.45-.11v.18h0l-.1,0v-.16h-.18v.25a.19.19,0,0,0-.06.07c.07,0,.13,0,.13.07s0,.05-.13.06a.38.38,0,0,0,.1.13.28.28,0,0,1,.18,0s0,.06,0,.1a.8.8,0,0,0,.21,0,.11.11,0,0,1,.11-.08.16.16,0,0,1,.12.09l.14,0s-.06-.08,0-.1a.29.29,0,0,1,.18,0,.15.15,0,0,0,.06-.09C104,20,104,20,104,20s0-.05.13-.06a.24.24,0,0,0-.09-.12v-.23l.12.06c.36.21.4.51.09.69a1.29,1.29,0,0,1-1.19-.05C102.68,20,102.64,19.73,103,19.55Z"/><path class="cls-19" d="M103.81,19.66a.58.58,0,0,0-.19,0v-.18a1.21,1.21,0,0,1,.34.08l-.07.09Z"/><path class="cls-20" d="M104,19.52l-.15,0v.23s0,0,0,0a.19.19,0,0,0,.18,0v-.23H104Z"/><path class="cls-20" d="M103.28,19.75a.23.23,0,0,1-.16,0v-.25h.18v.24S103.29,19.74,103.28,19.75Z"/><path class="cls-20" d="M103.4,19.44v-.07h.22v.07A1.61,1.61,0,0,0,103.4,19.44Z"/><path class="cls-20" d="M103.52,19.69a.15.15,0,0,1-.12-.07v-.18a1.61,1.61,0,0,1,.22,0v.18A.1.1,0,0,1,103.52,19.69Z"/><rect class="cls-19" x="103.54" y="20.1" width="0.45" height="0.18"/><path class="cls-20" d="M103.19,19.64v.22s-.11,0-.13-.07a.34.34,0,0,1,0-.12Z"/><rect class="cls-19" x="104.21" y="19.75" width="0.23" height="0.22"/><polygon class="cls-20" points="103.36 19.86 103.36 19.97 103.29 19.93 103.36 19.86"/><rect class="cls-19" x="98.44" y="23.53" width="0.26" height="0.23"/><polygon class="cls-20" points="103.98 19.71 103.98 19.91 104.1 19.95 104.17 19.79 103.98 19.71"/><polygon class="cls-20" points="103.86 19.89 103.86 20.09 103.98 20.12 104.06 19.97 103.86 19.89"/><path class="cls-19" d="M97.33,24.27v.25a.78.78,0,0,0,.33-.05.81.81,0,0,0,.15-.24Z"/><path class="cls-8" d="M97.89,22.53c.37-.21,4.47-2.59,4.93-2.87l.87.5L98.76,23c-.15.09-.11.24-.08.35a.62.62,0,0,1-.3.7,1.36,1.36,0,0,1-1,.22l0-.06a.94.94,0,0,0,.65-.08c.35-.19.55-.42.48-.67s-.38-.55-.95-.66a1.88,1.88,0,0,0-1.27.1c-.4.29-.49.6-.15.93l0,.05a.54.54,0,0,1-.15-.83,1.32,1.32,0,0,1,1.18-.38A1.16,1.16,0,0,0,97.89,22.53Z"/><path class="cls-9" d="M96.27,22.9a1.88,1.88,0,0,1,1.27-.1c.57.11.87.36.95.66s-.13.48-.48.67a.94.94,0,0,1-.65.08c.08-.09.26-.32.35-.44s-.17-.26-.49-.35-.57-.12-.66-.05-.37.39-.44.46C95.78,23.5,95.87,23.19,96.27,22.9Z"/><path class="cls-9" d="M102.4,20.36a.53.53,0,0,0-.49,0l-3.35,2c-.12.08-.11.21,0,.29h0a.59.59,0,0,0,.5,0l3.34-2c.13-.07.11-.2,0-.29Z"/><path class="cls-8" d="M103,20c-.36-.21-.4-.51-.09-.69a1.29,1.29,0,0,1,1.19.05c.36.2.4.51.09.69A1.35,1.35,0,0,1,103,20Zm1-.47a.22.22,0,0,1-.18,0s0-.06,0-.1a.86.86,0,0,0-.23-.06.1.1,0,0,1-.1.08.13.13,0,0,1-.12-.08l-.14,0s.06.07,0,.09a.18.18,0,0,1-.16,0,.21.21,0,0,0-.06.08c.07,0,.13,0,.13.07s0,.05-.13.06a.38.38,0,0,0,.1.13.19.19,0,0,1,.18,0s0,.06,0,.1l.21.05a.1.1,0,0,1,.11-.08.15.15,0,0,1,.12.08.35.35,0,0,0,.14,0s-.06-.07,0-.09a.23.23,0,0,1,.18,0,.24.24,0,0,0,.06-.09c-.08,0-.14,0-.14-.07s0-.05.13-.06A.24.24,0,0,0,104,19.53Z"/><polygon class="cls-20" points="103.69 20.16 103.69 20.4 98.76 23.25 98.76 23 103.69 20.16"/><path class="cls-11" d="M102.37,16.59c0,.53.76,1,1.7,1s1.71-.43,1.71-1-.77-1-1.71-1S102.37,16.06,102.37,16.59Z"/><path class="cls-11" d="M105.59,17a1.5,1.5,0,0,0,.47-1c0-.46-1.81.14-1.81.14Z"/><path class="cls-11" d="M102.54,17a1.54,1.54,0,0,1-.47-1c0-.46,1.81.14,1.81.14Z"/><rect class="cls-8" x="102.07" y="8.88" width="4" height="7.01"/><path class="cls-8" d="M102.07,15.9c0,.62.9,1.12,2,1.12s2-.5,2-1.12-.89-1.13-2-1.13S102.07,15.27,102.07,15.9Z"/><path class="cls-11" d="M102.07,8.88c0,.63.9,1.13,2,1.13s2-.5,2-1.13-.89-1.12-2-1.12S102.07,8.26,102.07,8.88Z"/><path class="cls-12" d="M103.45,11.23a3,3,0,0,0,.61.06c1.11,0,2-.5,2-1.13v4.89c0,.62-.89,1.13-2,1.13a3,3,0,0,1-.61-.06Z"/><path class="cls-11" d="M104.11,6.73l.88-.06a8,8,0,0,1,1,2c.21.77-.84.77-1.92.59Z"/><path class="cls-11" d="M104.34,6.73l-1.2-.06a8,8,0,0,0-1,2c-.22.77,1.17.77,2.24.59Z"/><path class="cls-8" d="M103.1,6.8c0,.3.43.54,1,.54s1-.24,1-.54-.43-.54-1-.54S103.1,6.5,103.1,6.8Z"/><rect class="cls-8" x="103.1" y="6.05" width="1.91" height="0.75"/><path class="cls-9" d="M103.1,6.05c0,.3.43.54,1,.54s1-.24,1-.54-.43-.54-1-.54S103.1,5.76,103.1,6.05Z"/><path class="cls-11" d="M103.45,6c0,.19.27.34.6.34s.6-.15.6-.34-.27-.33-.6-.33S103.45,5.82,103.45,6Z"/><rect class="cls-3" x="103.45" y="5.44" width="1.21" height="0.56"/><path class="cls-13" d="M103.71,11.71a3.33,3.33,0,0,0,.56,0c1,0,1.79-.45,1.79-1V11c0,.56-.8,1-1.79,1a3.33,3.33,0,0,1-.56,0Z"/><path class="cls-13" d="M105.28,12.71s.71,1.19,0,1.62S105.28,12.71,105.28,12.71Z"/><path class="cls-12" d="M104.39,4.67V6.18a1.22,1.22,0,0,1-.34,0V4.67Z"/><path class="cls-12" d="M103.94,4.67V6.22a1.35,1.35,0,0,1-.29,0V4.67Z"/><path class="cls-12" d="M104.79,4.67V6a1.11,1.11,0,0,1-.29.13V4.67Z"/><path class="cls-12" d="M103.54,4.67V6.14a1,1,0,0,1-.28-.14V4.67Z"/><path class="cls-12" d="M103.06,4.67h.09V5.9a.36.36,0,0,1-.09-.24Z"/><path class="cls-12" d="M105,4.67v1a.4.4,0,0,1-.14.29V4.67Z"/><path class="cls-2" d="M104.9,4.67V6l-.11.08V4.67Z"/><path class="cls-2" d="M104.5,4.67V6.16l-.11,0V4.67Z"/><path class="cls-2" d="M104.05,4.67V6.22h-.11V4.67Z"/><path class="cls-2" d="M103.65,4.67v1.5l-.11,0V4.67Z"/><path class="cls-2" d="M103.26,4.67V6l-.11-.1V4.67Z"/><path class="cls-14" d="M103.06,4.67c0,.31.44.56,1,.56s1-.25,1-.56-.44-.56-1-.56S103.06,4.36,103.06,4.67Z"/><path class="cls-12" d="M103.26,4.67c0,.24.35.44.77.44s.78-.2.78-.44-.35-.43-.78-.43S103.26,4.43,103.26,4.67Z"/><path class="cls-21" d="M137.34,81.72l-9.27-5.43a4.67,4.67,0,0,1,5.59-2.06,26.69,26.69,0,0,1,6.22,2.48Z"/><path class="cls-2" d="M133.63,80.29c0,3.7-2.26,8-5,9.6s-5-.1-5-3.81,2.26-8,5-9.6S133.63,76.59,133.63,80.29Z"/><polygon class="cls-2" points="125.45 90.23 128.71 92.11 134.81 77.95 131.43 76.01 125.45 90.23"/><path class="cls-12" d="M136.89,82.18c0,3.7-2.26,8-5,9.6s-5-.11-5-3.81,2.26-8,5-9.6S136.9,78.48,136.89,82.18Z"/><path class="cls-13" d="M135.48,83c0,2.66-1.63,5.75-3.62,6.9s-3.62-.07-3.61-2.73,1.62-5.75,3.62-6.9S135.48,80.33,135.48,83Z"/><path class="cls-12" d="M133.89,84A4.43,4.43,0,0,1,132,87.54c-1,.58-1.84,0-1.84-1.4a4.43,4.43,0,0,1,1.85-3.53C133.07,82,133.89,82.65,133.89,84Z"/><path class="cls-22" d="M133.58,84.19A3.67,3.67,0,0,1,132,87.12c-.85.49-1.53,0-1.53-1.16A3.69,3.69,0,0,1,132.05,83C132.9,82.53,133.59,83.06,133.58,84.19Z"/><path class="cls-21" d="M175.87,59.49l-9.27-5.44a4.67,4.67,0,0,1,5.59-2,26.44,26.44,0,0,1,6.22,2.48Z"/><path class="cls-23" d="M183.57,40.07s-11.12-9-19.94-11c-3.66-.82-7.61,1-10.67,1.26l-3.29,3.2,23.67,14.56,9.7-5.17C183.94,42.42,184.48,40.59,183.57,40.07Z"/><path class="cls-4" d="M109.19,57.36a38.46,38.46,0,0,0,7.31,6.13c10,7.05,17.16,6.52,17.16,6.52l5.57-9.79c-5.82-2.69-14.58-6.56-18.31-7.26S112.26,55.17,109.19,57.36Z"/><path class="cls-18" d="M117.7,44.08l-9.33,11s-.65.46.82,2.26c3.07-2.19,8-5.11,11.73-4.4s12.49,4.57,18.31,7.26l1.52-2.68Z"/><path class="cls-16" d="M117.7,44.08s1,1.48,7.1,5.71c5.66,3.94,16,7.75,16,7.75a139.87,139.87,0,0,1,13.19-8.8c5.83-3.24,16-7.49,16-7.49l-17-10.9s-4.49-4.41-12.18-.4c-2.89,1.51-8.11,4.72-15.44,9.17C122.61,40.78,119.87,42.6,117.7,44.08Z"/><path class="cls-10" d="M118.41,45.32s5.1-3.11,12.37-7.25,16.73-9.6,16.73-9.6l.88.28s-3.93,2.36-7.62,4.4c-3,1.65-22,12.78-22,12.78Z"/><path class="cls-10" d="M136.45,55.84s5.1-3.11,12.36-7.25S165.54,39,165.54,39l.89.28s-3.93,2.36-7.62,4.4c-3,1.65-22,12.78-22,12.78Z"/><path class="cls-16" d="M167.58,40.05l4.9.85,5,2.72s-9.68-1.26-10.65-1.66S167.58,40.05,167.58,40.05Z"/><path class="cls-2" d="M172.16,58.06c0,3.7-2.26,8-5,9.6s-5-.11-5-3.81,2.26-8,5-9.6S172.16,54.35,172.16,58.06Z"/><polygon class="cls-2" points="163.99 68 167.24 69.88 173.35 55.71 169.96 53.78 163.99 68"/><path class="cls-12" d="M175.42,59.94c0,3.71-2.26,8-5,9.6s-5-.1-5-3.8,2.26-8,5-9.6S175.43,56.24,175.42,59.94Z"/><path class="cls-13" d="M174,60.76c0,2.66-1.63,5.75-3.62,6.9s-3.62-.07-3.61-2.74,1.62-5.75,3.62-6.9S174,58.1,174,60.76Z"/><path class="cls-12" d="M172.42,61.78a4.4,4.4,0,0,1-1.85,3.52c-1,.59-1.84,0-1.84-1.39a4.43,4.43,0,0,1,1.85-3.53C171.6,59.79,172.43,60.42,172.42,61.78Z"/><path class="cls-22" d="M172.12,62a3.73,3.73,0,0,1-1.54,2.93c-.85.49-1.54,0-1.54-1.16a3.69,3.69,0,0,1,1.54-2.94C171.43,60.3,172.12,60.82,172.12,62Z"/><path class="cls-10" d="M183.57,40.07c-2.19.4-4.17,3.6-8.13,2.87-1.1-.21-4.49-1.49-7.26-1.3-3,.21-4.59,1.31-7.25,2.89-2.11,1.25-9.62,5.49-15.37,9.18-3.21,2.07-5.44,3.3-6.27,4.69-.58,1-2.63,5.74-4.63,9.47a9.39,9.39,0,0,1-1.48,2L96.73,63.18a17.36,17.36,0,0,0-3.37,6c-.5,1.45-2,5.11-1.3,8.42A13.17,13.17,0,0,0,98.69,86c13.31,7.71,20.83,6,26.38,2.86,0-4.91,3-10.6,6.69-12.72s6.65.13,6.66,5l25.86-14.92c.16-1.29.85-5.47,1.57-6.69,1.43-2.46,5.05-5.86,6.65-5.7,5.14.51,3,5.91,3.9,5.39l2-1.13c4-2.32,6.09-6.93,6.75-9.83C185.47,46.6,185.36,41.24,183.57,40.07Z"/><path class="cls-23" d="M177,58c0-5.44-3.34-7.94-7.43-5.57a13.93,13.93,0,0,0-4.74,5c-.69.42-1.41.87-2.15,1.35-3.88,2.49-20.61,12-26.78,15.55a4.79,4.79,0,0,0-4.8.42c-4.11,2.36-7.44,8.7-7.46,14.18l.57-.33.82-.47c0-.06.83-.37.83-.42,0-4.53,2.51-9.5,5.9-11.46a5.24,5.24,0,0,1,2-.71l-.17.1,2.17.45c1,.82,1.57,2.48,1.56,4.79V81l1.21-.7a8.32,8.32,0,0,0-1.2-4.63l16.59-9.26c2.28-1.28,8.86-4.3,8.86-4.3a14.53,14.53,0,0,0-.68,4.48l.57-.32.82-.48s.83-.36.83-.42A14.73,14.73,0,0,1,165.41,60l.27-.14,2.09-3,2.82-2.67c.45-.3-.42.15-2,1.06a9.32,9.32,0,0,1,1.66-1.26c3.4-2,5.92,0,5.92,4.56,0,0-.35.16-.35.21Z"/><path class="cls-24" d="M131.76,76.09c-3.68,2.12-6.67,7.81-6.69,12.72l.51-.29.73-.43V88c0-4.06,2.48-8.78,5.52-10.53s5.52.11,5.52,4.17c0,0,0,.09,0,.13l1.08-.63C138.41,76.22,135.43,74,131.76,76.09Z"/><path class="cls-16" d="M155.16,31.73a10.46,10.46,0,0,1,7.46-1.41c4,.92,8.47,4.1,8.47,4.1l-7,2.81Z"/><path class="cls-24" d="M170.29,53.86c-3.68,2.12-6.67,7.81-6.69,12.71l.51-.29.73-.42v-.14c0-4.07,2.48-8.78,5.52-10.54s5.52.12,5.52,4.18c0,0,0,.08,0,.13l1.09-.63C176.94,54,174,51.75,170.29,53.86Z"/><path class="cls-12" d="M108.37,55.1s-4.57,3.23-10.9,7.48c-3.13,2.09-4,7.62,3.38,12.43,8.59,5.61,14.84,5.38,20.29,2.21C127,73.8,133.66,70,133.66,70s-4.51,0-13.51-5.36A51,51,0,0,1,108.37,55.1Z"/><path class="cls-12" d="M137.67,69.35a.85.85,0,0,1-1.21-1.07c1.51-3.55,4.38-10,5.61-10.79,1.6-1,7.17-4.36,14-8.38,5-3,9.48-5.57,11.58-5A26.32,26.32,0,0,1,172.28,47a1.48,1.48,0,0,1-.12,2.49Z"/><path class="cls-14" d="M147.19,28.27S154,32,157.07,34c4.57,3,10.69,6.35,10.69,6.35l7,1.79c-1.89-1.14,0,0-3.66-2-5.21-2.93-10.9-6.55-11.82-7.12-1.27-.79-3.74-2.08-5-2.76A18.21,18.21,0,0,0,147.19,28.27Z"/><path class="cls-13" d="M109.28,83.86a3.68,3.68,0,0,1,3.57-2.25,12.62,12.62,0,0,0,3.26-.24,13.34,13.34,0,0,0,5.15-1.75c1.35-.8,1.47.58,1.32,1.1a6.09,6.09,0,0,1-4.08,4A13,13,0,0,1,109.28,83.86Z"/><path class="cls-12" d="M107.17,79.13c1.28.27,2.58.58,3.44.77l.23-.26a34.39,34.39,0,0,1-10.25-4.26,14.84,14.84,0,0,1-4-4l-.15.54a16.94,16.94,0,0,0,1.54,2.25C99.64,76.29,105.08,78.69,107.17,79.13Z"/><path class="cls-12" d="M106.78,80.25c1,.21,2.1.46,3,.65l.51-.58c-.94-.2-2.2-.48-3.42-.79A30.3,30.3,0,0,1,99,75.66a8.58,8.58,0,0,1-2.72-3.22l-.23.85a15.61,15.61,0,0,0,1.53,2C99.39,77.3,104.69,79.8,106.78,80.25Z"/><path class="cls-12" d="M98.12,78.08a8.29,8.29,0,0,1-2.52-2.84,2.85,2.85,0,0,0,1,2.19A18.22,18.22,0,0,0,100.1,80,51.94,51.94,0,0,0,106,82.73a2.5,2.5,0,0,0,2.24-.24c-.71-.16-1.48-.34-2.24-.54A30.3,30.3,0,0,1,98.12,78.08Z"/><path class="cls-12" d="M98.58,76.78a10.15,10.15,0,0,1-2.72-2.91l-.16.61s0,.06,0,.08a18.53,18.53,0,0,0,1.41,2c1.7,2.14,7.14,4.54,9.23,5l2.38.52,0,0,.62-.71c-.86-.18-1.91-.42-2.91-.68A30.2,30.2,0,0,1,98.58,76.78Z"/><path class="cls-14" d="M97.09,76.57a18.53,18.53,0,0,1-1.41-2,3.16,3.16,0,0,0-.08.68,8.29,8.29,0,0,0,2.52,2.84A30.3,30.3,0,0,0,106,82c.76.2,1.53.38,2.24.54a2.79,2.79,0,0,0,.49-.42l-2.38-.52C104.23,81.11,98.79,78.71,97.09,76.57Z"/><path class="cls-14" d="M106.78,80.25c-2.09-.45-7.39-3-9.23-5a15.61,15.61,0,0,1-1.53-2l-.16.58a10.15,10.15,0,0,0,2.72,2.91,30.2,30.2,0,0,0,7.86,3.87c1,.26,2,.5,2.91.68l.38-.43C108.88,80.71,107.8,80.46,106.78,80.25Z"/><path class="cls-14" d="M99,75.66a30.3,30.3,0,0,0,7.85,3.87c1.22.31,2.48.59,3.42.79l.37-.42c-.86-.19-2.16-.5-3.44-.77-2.09-.44-7.53-2.84-9.23-5A16.94,16.94,0,0,1,96.4,71.9l-.15.54A8.58,8.58,0,0,0,99,75.66Z"/><path class="cls-13" d="M94.68,66s-.15,1.9-.15,4a15.11,15.11,0,0,1-.66,3.65,18.6,18.6,0,0,1-.66-4A7.47,7.47,0,0,1,94.68,66Z"/><path class="cls-12" d="M94.67,81.19s0-3.81,2.38-2.16a39.54,39.54,0,0,0,5.57,3.37c1.76.84,3,1.44,3.53,2.36a10.6,10.6,0,0,1,.52,3.38s-1.67-.09-7.35-3.3C95.06,82.43,94.67,81.19,94.67,81.19Z"/><path class="cls-13" d="M96.45,79.61v2.28S98.2,83.13,99.6,84c.92.59,4.41,2.19,4.41,2.19V84s-2.48-1.12-4.42-2.23A23.7,23.7,0,0,1,96.45,79.61Z"/><path class="cls-24" d="M91.88,76.14a9.58,9.58,0,0,0,1.31,5.66c1.63,2.38,5.77,6.63,13.12,8.74,8.23,2.36,13.48,1.62,16.53.25s3.39-1.27,3.47-2.7-1.24-.45-1.24-.45-1.34,2.25-7.73,2.64A35.43,35.43,0,0,1,106,88.79a32.88,32.88,0,0,1-9.51-5.2A10.53,10.53,0,0,1,91.88,76.14Z"/><path class="cls-12" d="M111.3,87a.47.47,0,0,0-.4.7,4.68,4.68,0,0,0,.82,1.11c1,1,5.87,1,6.41.55a1.3,1.3,0,0,0-1.11-2C115.25,87.37,112.82,87,111.3,87Z"/><path class="cls-12" d="M92.19,73s.36,1.65.6,2.29-.91.88-.91.88A16.33,16.33,0,0,1,92.19,73Z"/><path class="cls-13" d="M102.46,78.69c-.15.44-1,.48-1.86.07s-1.49-1.09-1.35-1.54,1-.48,1.86-.07S102.6,78.24,102.46,78.69Z"/><path class="cls-12" d="M107.44,55.76s.57,1.32,3.76,3.82,9.76,7.14,14.15,8.9,7.21,2.86,8.31,1.53,6.72-12.68,6.72-12.68l-.64-.27s-6,11.63-6.71,12.26-6.29-1.46-16.17-7.89c-3.74-2.45-8.49-6.33-8.49-6.33Z"/><path class="cls-12" d="M117.7,44.08l-.45.52a51,51,0,0,0,7.85,5.92c4.38,2.63,14.86,7.39,14.86,7.39l.42-.58s-9.74-4.12-15-7.6A79.93,79.93,0,0,1,117.7,44.08Z"/><polygon class="cls-24" points="164.42 64.6 137.94 79.87 137.94 81.36 138.33 81.14 164.74 65.9 164.42 64.6"/><path class="cls-4" d="M152.05,52.35V60l-11.31,6.53s0-2.91,0-4.1a7,7,0,0,1,.71-2.66,6.61,6.61,0,0,1,2.36-2.49C146.84,55.44,152.05,52.35,152.05,52.35Z"/><path class="cls-4" d="M153.53,51.66v7.71l11.94-7s0-2.93-.14-3.81l-.56-3.09Z"/><path class="cls-4" d="M165.86,45.14s.44,2.18.56,3,.18,3.66.18,3.66,2.71-1.63,3.34-1.95,1.12-1.24-.52-2.47A38.28,38.28,0,0,0,165.86,45.14Z"/><path class="cls-12" d="M184.68,42.44l-.15.1a1.56,1.56,0,0,0-.71,1.32v1.75a25.81,25.81,0,0,1-.24,3.16l1.62-1a6.63,6.63,0,0,0,.45-3.7A2.37,2.37,0,0,0,184.68,42.44Z"/><path class="cls-23" d="M175.43,53.31A57,57,0,0,0,184,48.47,13.61,13.61,0,0,0,185.46,47s.44.65-1.14,2.81a37.9,37.9,0,0,1-7.77,5.32C175.76,53.33,175.43,53.31,175.43,53.31Z"/><path class="cls-8" d="M103.5,69.3a.58.58,0,0,1-.18,0c-.17-.08-1.71-.77-1.79-1.87,0-.58.3-1.1,1-1.56a85.92,85.92,0,0,1,8.1-3.94.44.44,0,0,1,.59.23.45.45,0,0,1-.24.58c-.05,0-5.82,2.52-8,3.88-.24.15-.64.45-.62.74,0,.45.87,1,1.27,1.12a.46.46,0,0,1,.23.59A.46.46,0,0,1,103.5,69.3Z"/><path class="cls-8" d="M106.4,67.6a.46.46,0,0,1-.22-.06c-.51-.29-3.06-1.81-3-3.21a1.3,1.3,0,0,1,.81-1.15c2.09-1.11,5.82-2.82,5.86-2.84a.44.44,0,0,1,.59.22.45.45,0,0,1-.22.59s-3.74,1.72-5.81,2.82c-.34.17-.34.33-.34.38,0,.64,1.54,1.82,2.59,2.42a.44.44,0,0,1-.22.83Z"/><path class="cls-22" d="M110.61,66.62a75.06,75.06,0,0,0-8.06,4.7l0-.29L100,70.9a10.71,10.71,0,0,0-.5,3.13,21,21,0,0,0,4.39,2.77,22.52,22.52,0,0,0,4.88,2,1.83,1.83,0,0,0,.84-.38,47.09,47.09,0,0,1,5.18-3.6c4.33-2.57,7.72-4.29,8.18-4.46C122.43,70,114.1,64.89,110.61,66.62Z"/><path class="cls-25" d="M123,70.35l0,0C123,70.34,123,70.33,123,70.35Z"/><path class="cls-8" d="M100.39,72.09a1,1,0,0,1-.08-1.6,81.14,81.14,0,0,1,10.3-6.24C114.22,62.47,123,68,123,68a72.38,72.38,0,0,0-8.21,4.44A47.09,47.09,0,0,0,109.6,76a1.89,1.89,0,0,1-2.13.16Z"/><path class="cls-11" d="M110.68,65s-3.72,2.38-5.53,3.35-3.48,2.45-3.5,3.27.58.55,2.32-.76,8.61-5.11,8.61-5.11Z"/><path class="cls-11" d="M112.91,66.48s-3.71,2.38-5.53,3.35-3.47,2.45-3.49,3.27.58.55,2.31-.76,8.62-5.11,8.62-5.11Z"/><path class="cls-11" d="M115.7,67.81s-3.72,2.38-5.53,3.36-3.48,2.44-3.5,3.26.59.55,2.32-.75,8.61-5.12,8.61-5.12Z"/><path class="cls-8" d="M115.91,76.35a5.33,5.33,0,0,1-3-1.1.45.45,0,0,1-.08-.63.46.46,0,0,1,.63-.07s2,1.52,3.53.62c1.85-1.08,9.48-5.41,9.48-5.41l.44.77s-7.63,4.33-9.48,5.4A3.05,3.05,0,0,1,115.91,76.35Z"/><path class="cls-8" d="M120.66,75.56c-2,0-4.27-2.21-4.57-2.51a.45.45,0,0,1,.63-.63c.83.83,3.28,2.82,4.61,2.09,1.89-1,7-4.25,7-4.29a.45.45,0,0,1,.48.75c-.21.14-5.16,3.27-7.08,4.32A2.24,2.24,0,0,1,120.66,75.56Z"/><path class="cls-6" d="M105.26,76.51s1.27-.19,1.9-.37.31.3.14.37a1.6,1.6,0,0,0-.58.52c.08.25.4.81.57,1.21.42,1-.32,1.52-1.06,1.09a17.53,17.53,0,0,1-2-1.38Z"/><path class="cls-6" d="M101.24,63.09a6.88,6.88,0,0,0-1.55,2.17c-.54,1.14-2.16-.73-2.16-.73l1.09-2.9Z"/><path class="cls-6" d="M100.41,58.7c2.06-.7,2.71,3.8,1.68,5.34s-3.58,0-4.19-1.2S97.93,59.54,100.41,58.7Z"/><path class="cls-12" d="M98.8,97.59a13.11,13.11,0,0,1,3.28-1c1.08,0,1.19,1.23,0,2.21A9.25,9.25,0,0,1,99,100.31c-.88.36-1.19.38-1.89-.07-.94-.61-.19-2.21-.19-2.21Z"/><path class="cls-12" d="M91.31,95.37a11.21,11.21,0,0,1,2.83-.78c1.09,0,1.48.89.29,1.88a9,9,0,0,1-2.91,1.61c-.88.36-1.19.38-1.9-.07-1-.61-.21-2.21-.18-2.21Z"/><path class="cls-3" d="M98,64.09s-2-2.14-4.16-.42c-2,1.59-3.9,4.54-3.39,6a5.13,5.13,0,0,0,2.18,2.4Z"/><path class="cls-3" d="M98.32,78s1.82,7.16,2.28,9.63c.3,1.6-.24,5.33-.36,7.68-.07,1.27.54,1.44.19,2.24a3.11,3.11,0,0,1-1.94,1.4c-1.52.41-2.08.21-2.24-.37a3.72,3.72,0,0,1-.33-2,11.74,11.74,0,0,0,0-3.3,27.25,27.25,0,0,1,.49-4.33s-2.32-5.47-2.54-5.86a17.88,17.88,0,0,1-.15,5.09c-.13,1.48,0,3-.34,5-.09.6-.4.7-.53,1.54-.07.49.53,1,.07,1.36-.78.56-3.52,1.77-4.13.66-.5-.9.32-.88.2-1.78-.06-.45-.44-.8-.42-1.53,0-1.28.55-4.26.57-5.3,0-1.26.28-4.17.33-6.17.08-2.84.61-5.28,1.64-6.11C92.62,74.6,98.32,78,98.32,78Z"/><path class="cls-4" d="M91.53,67.61c.86-1.66,2.7-3.91,4.14-4.21s4,1.12,5.74,2.79-1.15,4.2-1.15,4.2A19,19,0,0,1,99.79,73c-.26.91-.6,2.5-.74,3.12a8.35,8.35,0,0,0-.11,4.34s-3.36,1.82-5.07,1.31-4.56-2.63-4.73-3.16C89.29,77,89.82,70.93,91.53,67.61Z"/><path class="cls-3" d="M100.43,65.32a1.75,1.75,0,0,0,0-1c-.41-.7-1.59-.95-2.16-1.21-1.2-.54-1.63.27-1.59.28Z"/><path class="cls-3" d="M98.78,78.15a9.1,9.1,0,0,1-1.38.75c-.64.25-1.43.63-1.43.63v-.88l2.86-1.31Z"/><path class="cls-3" d="M101.24,66A2.69,2.69,0,0,1,102.57,69a30.51,30.51,0,0,0-.17,3.64s2.7,3,3.33,3.58a1.74,1.74,0,0,1-1.24,2.54,47.13,47.13,0,0,1-4.06-2.54c-.74-.65-1.6-.86-1.6-2.9C98.83,72.18,99.2,64.91,101.24,66Z"/><path class="cls-2" d="M101.38,58.63a3,3,0,0,0-3-.32c-1.16.56-1.49,2.3-1.7,2.81a2,2,0,0,1-.74.77,1.23,1.23,0,0,0,.91-.26,4.39,4.39,0,0,0,0,1.44c0,.22.23,1.13.23,1.13a3.1,3.1,0,0,1,.75-.65,6.4,6.4,0,0,0-.17,1.35,15.51,15.51,0,0,1,1.46-1.13,2,2,0,0,0,.29,1c.32-.68,1.47-.89,2.52-2.61C102.5,61.3,103.74,59.92,101.38,58.63Z"/><path class="cls-10" d="M107.75,56.07s-7.8-1-11.21-.68c-2.35.24,4.84,3.65,8,6.19,3.8,3,8.08,7.52,14.49,8.42,1.91.27,12.83,1,12.83,1l.75-.43a61.29,61.29,0,0,1-9.28-3.67C117.34,64,110.41,59.42,107.75,56.07Z"/><path class="cls-26" d="M96.15,55.31s-.17.33,0,.54.77-.1.77-.1Z"/><path class="cls-23" d="M107.75,55.54s-7.74-.79-11.14-.44c-2.35.25,4.77,3.41,8,5.95,3.8,3,8.08,7.52,14.49,8.42,1.91.26,13.58,1.13,13.58,1.13S114.11,63.57,107.75,55.54Z"/><path class="cls-16" d="M115.28,67.16s1.16,1.08,4.49,1.41,8.83.28,8.83.28l-3.41-1.51Z"/><path class="cls-16" d="M100.54,57.15s-.85-1.31,1.61-1.23,6.4.53,6.4.53L110,57.91Z"/><path class="cls-6" d="M175.38,56.82c0,.26.14.38.4.65.08.08-.69.26-.69.26l.24,1.44,1.77-.56.69-1s-1,0-1.18-.25a2.44,2.44,0,0,0-.79-.35C175.59,56.93,175.4,56.71,175.38,56.82Z"/><path class="cls-2" d="M185.64,71.25a9.41,9.41,0,0,1,1.81.22c.4.11,1.11.37,1.06,1a21.25,21.25,0,0,0-.2,3c0,.35.05.79-1,1.14a2.12,2.12,0,0,1-2.1-.44c-.3-.27-.74-1,.63-1.17a1.17,1.17,0,0,0-.94-1.28C184.5,73.54,184.93,71.26,185.64,71.25Z"/><path class="cls-2" d="M180.62,74.24a8.53,8.53,0,0,1,1.81.21c.4.12,1.11.37,1.07,1a20.77,20.77,0,0,0-.21,3c0,.36.05.8-.95,1.14a2.13,2.13,0,0,1-2.11-.43c-.3-.27-.73-1,.63-1.17a1.16,1.16,0,0,0-.94-1.28C179.48,76.53,179.91,74.24,180.62,74.24Z"/><path class="cls-3" d="M180.2,73c1.75.34,5.09,1.29,5.09,1.29a6.82,6.82,0,0,1,.38-2.06,2.37,2.37,0,0,1,.9-1L181,68.88l-3.28,2.19A4.45,4.45,0,0,0,180.2,73Z"/><path class="cls-3" d="M185.92,65.36l-7.46,1.06s-2.23,1.72-4.3,3.53a8.87,8.87,0,0,0-2.09,3.12c-.52,1.17,1,2.12,2.57,2.67S180,77.26,180,77.26a4.22,4.22,0,0,1,.53-2,6.84,6.84,0,0,1,1.08-1.13L180,73.43c2.41-.59,5.07-1.21,5.93-2.92C186.69,69,185.92,65.36,185.92,65.36Z"/><path class="cls-3" d="M182,54.88a2.46,2.46,0,0,1,2.33,1.51,5.58,5.58,0,0,1,.15,2.77l-2.3-1.2Z"/><path class="cls-6" d="M180,49.59a1.84,1.84,0,0,1,2.63.9c.33.68-.13,2.52-.2,3.81a3.12,3.12,0,0,0,.29,1.64l-.9.37a2.67,2.67,0,0,1-1.82,0l0-1.59a4.35,4.35,0,0,1-1.13-.29,3.77,3.77,0,0,1-.43-2.9C178.72,49.4,179.71,49.77,180,49.59Z"/><path class="cls-4" d="M176.49,68a6.49,6.49,0,0,0,5.27,3.3c1.59.07,3.41-1.45,4.46-2,.13-1.52-.07-2.81,0-4a15.7,15.7,0,0,0-1.28-7.74,5.09,5.09,0,0,0-1.69-2.08L180,55.9a4,4,0,0,0-1.75,1.27c-.5.64-1.75,2.12-1.23,3.24C177.6,61.71,177.12,66.34,176.49,68Z"/><path class="cls-3" d="M179.74,55.69a4.33,4.33,0,0,0,2.31-.46c.87-.56,1.18.19,1.18.19a2.51,2.51,0,0,1-1.34,1.09,4.5,4.5,0,0,1-3.09.06A1,1,0,0,1,179.74,55.69Z"/><path class="cls-2" d="M177.9,49.28a1.62,1.62,0,0,0,1.1-.22c-.2-.06-.38-.35-.51-.59a7.26,7.26,0,0,1,3.89.11c.91.47,1.85,1.22,1.35,3.51-.39,1.84-.93,2.29-1.48,2.72a2.61,2.61,0,0,1-1.77-1.7s.49-1,.11-1.31-.81.22-.91.45A3.91,3.91,0,0,1,177.9,49.28Z"/><path class="cls-3" d="M177.51,65.55a16.72,16.72,0,0,0,1.4,1.85,3.84,3.84,0,0,0,.83.68l-.6.66a7.76,7.76,0,0,1-1-1.09c-.44-.62-.75-1.17-.75-1.17Z"/><path class="cls-6" d="M167.84,61.78a2.1,2.1,0,0,1-.84-.73c-.2-.41-.31-.64-.5-.64s-.22.26-.16.42.37.87.22.94a4.11,4.11,0,0,1-1.06.18,11.82,11.82,0,0,0-.5,2,3,3,0,0,0,.72.06c.8,0,2.54,0,2.54,0Z"/><path class="cls-3" d="M179.73,58.89c0-.65-.28-2.3-1-2.31-2.15,0-3.28,3.34-5.17,4.17s-5.73.75-5.73.75a3.37,3.37,0,0,0-.81,1.32,2.88,2.88,0,0,0,.21,1.65s5.48.76,7.38,0S179.92,62.8,179.73,58.89Z"/><path class="cls-2" d="M118.71,117.9a8.35,8.35,0,0,1-4.38-1.46,4.31,4.31,0,0,1-2.4-3.31c-.19-2.95,3.7-6.07,5.56-7.57a4.37,4.37,0,0,0,1.91-2.81c.15-1.39-.81-2.9-2.28-4.73-2.34-2.9-2.17-5.92-2-9.11,0-.54.07-1.09.09-1.65,0-.85.09-1.69.15-2.5a19,19,0,0,0,0-4.19c-.14-.7-1-1.26-1.51-1.63l-.13-.09c-1.53-1-3-2.21-3-2.22a.18.18,0,0,1,0-.25.19.19,0,0,1,.25,0s1.5,1.17,3,2.21l.13.09c.59.4,1.48,1,1.65,1.85a18.57,18.57,0,0,1,0,4.29c-.06.8-.12,1.64-.15,2.48,0,.56-.06,1.11-.09,1.66-.18,3.13-.36,6.08,1.9,8.87,1.53,1.9,2.52,3.47,2.36,5a4.68,4.68,0,0,1-2,3c-1.82,1.46-5.61,4.51-5.43,7.28a4,4,0,0,0,2.23,3c4.48,2.76,6.81.94,9.06-.83.46-.36.93-.73,1.4-1,2.73-1.82,4.56-2.84,4.58-2.85a.19.19,0,0,1,.24.07.17.17,0,0,1-.07.24s-1.84,1-4.56,2.84c-.46.3-.9.65-1.37,1C122.37,116.7,120.84,117.9,118.71,117.9Z"/><path class="cls-10" d="M76.74,59.6h0Z"/><path class="cls-23" d="M81.9,46l-4.68,2.7a1.76,1.76,0,0,0-.72,1.38v8.45l2.42-2.06,2.11.93.87-.5a1.73,1.73,0,0,0,.72-1.38v-9C82.62,46,82.3,45.75,81.9,46Z"/><path class="cls-27" d="M76.74,59.6l3.39,1.94,2-3.7-1-.46-3.81,2.2A.46.46,0,0,1,76.74,59.6Z"/><path class="cls-27" d="M76.5,58.51V59a.69.69,0,0,0,.21.56h0a.46.46,0,0,0,.48,0L81,57.38l-2.11-.93Z"/><polygon class="cls-10" points="85.2 46.45 81.92 44.56 81.59 44.8 84.79 46.62 85.2 46.45"/><polygon class="cls-23" points="82.34 45.93 85.78 47.9 83.8 50.94 80.48 48.78 82.34 45.93"/><path class="cls-24" d="M85.27,58.81l-4.67,2.7c-.4.23-.72,0-.72-.55V52a1.73,1.73,0,0,1,.72-1.38l4.67-2.7c.4-.23.73,0,.73.54v9A1.74,1.74,0,0,1,85.27,58.81Z"/><path class="cls-24" d="M85.92,48.07l-.53-1.4a.38.38,0,0,0-.6-.18l-.65.39L84,49.2Z"/><path class="cls-24" d="M79.9,51.75a9.1,9.1,0,0,1,.44-2,2.07,2.07,0,0,1,.83-1.21l1-.55.18,2.11S79.9,52.48,79.9,51.75Z"/><path class="cls-10" d="M82.57,46.13,82,44.74a.37.37,0,0,0-.59-.18l-.65.38-.2,2.33Z"/><path class="cls-23" d="M76.51,49.9a9.36,9.36,0,0,1,.49-2,2,2,0,0,1,.83-1.21l1-.56L79.9,48S76.51,50.63,76.51,49.9Z"/><polygon class="cls-16" points="84.14 46.88 80.8 44.94 81.45 44.56 84.79 46.49 84.14 46.88"/><polygon class="cls-10" points="80.8 44.94 80.65 46.7 84 48.65 84.14 46.88 80.8 44.94"/><polygon class="cls-16" points="82.15 48.03 78.8 46.09 77.83 46.65 81.17 48.58 82.15 48.03"/><polygon class="cls-10" points="79.88 51.98 76.5 50.06 76.5 59.03 79.88 60.96 79.88 51.98"/><polygon class="cls-27" points="82.59 47.31 81.75 47.8 80.33 46.98 81.95 46.04 82.59 47.31"/><path class="cls-27" d="M81.77,46.48a1,1,0,0,0,.51.85c.28.11.49-.09.48-.45a1,1,0,0,0-.51-.86C82,45.91,81.76,46.12,81.77,46.48Z"/><path class="cls-27" d="M85.31,50.21c-.14,0-.33.15-.41.39l-1.8,5.17.83-.77,1.49-4.3C85.51,50.46,85.46,50.24,85.31,50.21Z"/><path class="cls-27" d="M81,52.71c.14-.19.33-.23.41-.09l1.77,3.12-.82.18-1.48-2.6A.63.63,0,0,1,81,52.71Z"/><path class="cls-27" d="M85.29,57.26c-.14.19-.33.23-.41.08l-1.77-3.12.82-.17,1.48,2.59A.65.65,0,0,1,85.29,57.26Z"/><path class="cls-27" d="M81,59.75c.14,0,.33-.15.41-.39l1.8-5.17-.83.77-1.49,4.31C80.75,59.5,80.8,59.72,81,59.75Z"/><path class="cls-27" d="M84,55.44l-1.73,1c-.19.11-.35,0-.35-.27V55a.86.86,0,0,1,.35-.67l1.72-1c.2-.11.36,0,.35.27v1.21A.86.86,0,0,1,84,55.44Z"/><path class="cls-24" d="M83.8,55.2l-1.26.73c-.13.06-.22,0-.22-.17v-.82a.53.53,0,0,1,.22-.42l1.26-.73c.12-.07.22,0,.22.17v.82A.53.53,0,0,1,83.8,55.2Z"/><polygon class="cls-27" points="84.31 51.33 82 52.66 82 52.27 84.31 50.94 84.31 51.33"/><polygon class="cls-27" points="84.31 58.05 82 59.37 82 58.98 84.31 57.65 84.31 58.05"/><polygon class="cls-27" points="84.31 57.25 82 58.58 82 58.18 84.31 56.85 84.31 57.25"/><polygon class="cls-27" points="84.31 50.47 82 51.8 82 51.4 84.31 50.08 84.31 50.47"/><polygon class="cls-12" points="79.25 56.7 77.12 55.48 77.12 51.59 79.25 52.82 79.25 56.7"/><polygon class="cls-13" points="78.43 55.8 77.52 55.28 77.52 53.61 78.43 54.14 78.43 55.8"/><polygon class="cls-8" points="78.95 53.25 77.43 52.36 77.43 52.08 78.95 52.96 78.95 53.25"/><polygon class="cls-8" points="78.95 53.84 77.43 52.95 77.43 52.67 78.95 53.55 78.95 53.84"/><path class="cls-14" d="M79.51,48.71a1,1,0,0,1-.58,1.23.92.92,0,0,1-1.19-.58,1,1,0,0,1,.59-1.22A.91.91,0,0,1,79.51,48.71Z"/><polygon class="cls-14" points="77.88 49.72 78.21 49.9 79.19 48.26 78.8 48.02 77.88 49.72"/><path class="cls-25" d="M79.25,48.56a1,1,0,0,1-.59,1.23.91.91,0,0,1-1.18-.58A1,1,0,0,1,78.07,48,.9.9,0,0,1,79.25,48.56Z"/><path class="cls-2" d="M79.09,48.59a.83.83,0,0,1-.49,1,.75.75,0,0,1-1-.48.81.81,0,0,1,.48-1A.76.76,0,0,1,79.09,48.59Z"/><polygon class="cls-2" points="77.53 49.31 78.02 49.58 78.78 48.18 78.31 47.92 77.53 49.31"/><path class="cls-12" d="M78.71,48.38a.83.83,0,0,1-.49,1,.75.75,0,0,1-1-.48.81.81,0,0,1,.48-1A.76.76,0,0,1,78.71,48.38Z"/><path class="cls-7" d="M77.46,48.89a.64.64,0,0,1,.39-.79.56.56,0,0,1,.44,0,.6.6,0,0,0-.51,0,.64.64,0,0,0-.38.8.57.57,0,0,0,.32.36A.58.58,0,0,1,77.46,48.89Z"/><path class="cls-8" d="M78.16,49.23a.63.63,0,0,0,.38-.79.57.57,0,0,0-.25-.33.56.56,0,0,0-.44,0,.64.64,0,0,0-.39.79.58.58,0,0,0,.26.33A.56.56,0,0,0,78.16,49.23Z"/><path class="cls-7" d="M88.35,47.49v1.79a.81.81,0,0,1-.33.63l-2,1.15c-.18.11-.33,0-.33-.24V49a2.56,2.56,0,0,0-.79,1.73L83,51.8a1.32,1.32,0,0,0-.57,1.07v9.05a1,1,0,0,0,1.48.86l4.25-2.46A1.69,1.69,0,0,0,89,58.85V48.32C89,47.76,88.75,47.45,88.35,47.49Z"/><path class="cls-9" d="M83,51.8a1.35,1.35,0,0,0-.57,1.07v2L84.92,56l1.74-2.29-3.42-2Z"/><polygon class="cls-8" points="84.9 50.71 83.24 51.67 86.66 53.7 87.79 52.3 84.9 50.71"/><polygon class="cls-7" points="83.05 62.8 85.37 64.18 85.37 63.18 82.61 61.68 83.05 62.8"/><polygon class="cls-8" points="90.97 51.33 88.2 49.73 85.6 51.22 88.38 52.82 90.97 51.33"/><polygon class="cls-7" points="88.02 50.35 85.69 48.98 84.9 50.71 87.49 52.21 88.02 50.35"/><polygon class="cls-7" points="88.63 47.52 91.04 48.94 90.9 51.29 88.25 49.76 88.74 48.85 88.63 47.52"/><path class="cls-9" d="M88.35,47.49l2.32,1.36.37.09-2.4-1.42A.54.54,0,0,0,88.35,47.49Z"/><path class="cls-11" d="M90.67,48.85v1.8a.77.77,0,0,1-.33.62l-2,1.16c-.18.1-.33,0-.33-.25V50.35a2.56,2.56,0,0,0-.79,1.73l-1.87,1.08a1.34,1.34,0,0,0-.56,1.07v9.06a1,1,0,0,0,1.47.85l4.25-2.45a1.7,1.7,0,0,0,.85-1.47V49.69C91.36,49.13,91.07,48.81,90.67,48.85Z"/><path class="cls-13" d="M90.55,59.9V52.6l-.5.26-3.76,5.75v3.68c0,.51.31.74.7.52l2.86-1.58A1.66,1.66,0,0,0,90.55,59.9Z"/><polygon class="cls-12" points="89.64 52.96 86.21 54.9 86.21 58.32 89.64 52.96"/><polygon class="cls-8" points="84.79 54.9 82.47 53.52 82.47 61.59 84.79 62.97 84.79 54.9"/><path class="cls-9" d="M85.69,49l-.09.08-.07.09,2.32,1.37.16-.17Z"/><polygon class="cls-11" points="89.58 49.4 87.98 50.33 86.93 49.73 89.11 48.46 89.58 49.4"/><path class="cls-11" d="M89,48.78a.74.74,0,0,0,.38.63c.2.08.35-.07.35-.33a.74.74,0,0,0-.38-.63C89.13,48.37,89,48.52,89,48.78Z"/><path class="cls-12" d="M88.55,56.22s1.4,2.35,0,3.18S88.55,56.22,88.55,56.22Z"/><polygon class="cls-12" points="90.11 59.89 86.73 61.84 86.73 61.35 90.11 59.4 90.11 59.89"/><path class="cls-12" d="M84.87,50.84v1.37a1.12,1.12,0,0,0,.32,0V50.84Z"/><path class="cls-12" d="M85.29,50.84v1.4a1.09,1.09,0,0,0,.26,0V50.84Z"/><path class="cls-12" d="M84.51,50.84v1.24a1.56,1.56,0,0,0,.26.11V50.84Z"/><path class="cls-12" d="M85.65,50.84v1.33a.89.89,0,0,0,.26-.12V50.84Z"/><path class="cls-12" d="M86.09,50.84H86V52a.32.32,0,0,0,.08-.21Z"/><path class="cls-12" d="M84.28,50.84v.9a.38.38,0,0,0,.13.26V50.84Z"/><path class="cls-2" d="M84.41,50.84V52l.1.08V50.84Z"/><path class="cls-2" d="M84.77,50.84v1.35l.1,0V50.84Z"/><path class="cls-2" d="M85.19,50.84v1.41h.1v-1.4Z"/><path class="cls-2" d="M85.55,50.84v1.37l.1,0V50.84Z"/><path class="cls-2" d="M85.91,50.84v1.21A.47.47,0,0,0,86,52V50.84Z"/><path class="cls-14" d="M86.09,50.84c0,.28-.4.51-.9.51s-.91-.23-.91-.51.41-.51.91-.51S86.09,50.55,86.09,50.84Z"/><path class="cls-12" d="M85.91,50.84c0,.22-.32.39-.71.39s-.7-.17-.7-.39.31-.4.7-.4S85.91,50.62,85.91,50.84Z"/><path class="cls-14" d="M205.15,64.11c0,2-3.11,3.7-7,3.7s-6.95-1.66-6.95-3.7,3.11-3.7,6.95-3.7S205.15,62.07,205.15,64.11Z"/><path class="cls-12" d="M205.14,63.79c0,2-3.11,3.69-6.94,3.69s-6.95-1.65-6.95-3.69,3.11-3.7,6.95-3.7S205.14,61.74,205.14,63.79Z"/><rect class="cls-12" x="191.25" y="59.53" width="13.89" height="4.48"/><path class="cls-14" d="M205.14,59.68c0,2-3.11,3.7-6.94,3.7s-6.95-1.66-6.95-3.7S194.36,56,198.2,56,205.14,57.64,205.14,59.68Z"/><path class="cls-28" d="M204.54,59.53c0,1.86-2.84,3.37-6.34,3.37s-6.34-1.51-6.34-3.37,2.84-3.37,6.34-3.37S204.54,57.67,204.54,59.53Z"/><path class="cls-14" d="M198.2,57.53c2.39,0,4.35,1,4.55,2.22a.86.86,0,0,0,0-.22c0-1.35-2.05-2.44-4.57-2.44s-4.58,1.09-4.58,2.44a1.8,1.8,0,0,0,0,.22C193.85,58.5,195.81,57.53,198.2,57.53Z"/><ellipse class="cls-2" cx="198.2" cy="59.75" rx="4.56" ry="2.22"/><path class="cls-14" d="M198.2,66.17c-3.7,0-6.72-1.54-6.93-3.48,0,.07,0,.14,0,.21,0,2,3.11,3.7,6.95,3.7s7-1.66,7-3.7c0-.07,0-.14,0-.21C204.92,64.63,201.9,66.17,198.2,66.17Z"/><path class="cls-14" d="M198.2,64.64c-3.7,0-6.72-1.54-6.93-3.48,0,.07,0,.14,0,.21,0,2,3.11,3.69,6.95,3.69s7-1.65,7-3.69c0-.07,0-.14,0-.21C204.92,63.1,201.9,64.64,198.2,64.64Z"/><path class="cls-14" d="M150.91,14.75c0,2-3.11,3.7-6.95,3.7s-7-1.66-7-3.7,3.11-3.7,7-3.7S150.91,12.71,150.91,14.75Z"/><path class="cls-12" d="M150.9,14.42c0,2-3.11,3.7-6.94,3.7s-7-1.66-7-3.7,3.11-3.69,7-3.69S150.9,12.38,150.9,14.42Z"/><rect class="cls-12" x="137.01" y="10.17" width="13.89" height="4.48"/><path class="cls-14" d="M150.9,10.32c0,2-3.11,3.69-6.94,3.69s-7-1.65-7-3.69,3.11-3.7,7-3.7S150.9,8.28,150.9,10.32Z"/><path class="cls-28" d="M150.3,10.17c0,1.86-2.84,3.37-6.34,3.37s-6.34-1.51-6.34-3.37S140.46,6.8,144,6.8,150.3,8.3,150.3,10.17Z"/><path class="cls-14" d="M144,8.17c2.39,0,4.35,1,4.55,2.21a.76.76,0,0,0,0-.21c0-1.35-2-2.44-4.58-2.44s-4.58,1.09-4.58,2.44a1.49,1.49,0,0,0,0,.21C139.61,9.14,141.57,8.17,144,8.17Z"/><path class="cls-2" d="M144,12.6c2.39,0,4.35-1,4.55-2.22-.2-1.24-2.16-2.21-4.55-2.21s-4.35,1-4.56,2.21C139.61,11.63,141.57,12.6,144,12.6Z"/><path class="cls-14" d="M144,16.81c-3.7,0-6.72-1.54-6.93-3.48,0,.07,0,.14,0,.21,0,2,3.11,3.69,7,3.69s6.95-1.65,6.95-3.69c0-.07,0-.14,0-.21C150.68,15.27,147.66,16.81,144,16.81Z"/><path class="cls-14" d="M144,15.28c-3.7,0-6.72-1.54-6.93-3.48,0,.07,0,.14,0,.21,0,2,3.11,3.69,7,3.69s6.95-1.65,6.95-3.69c0-.07,0-.14,0-.21C150.68,13.74,147.66,15.28,144,15.28Z"/><path class="cls-14" d="M142.85,23c0,2-3.11,3.69-6.95,3.69s-7-1.65-7-3.69,3.11-3.7,7-3.7S142.85,21,142.85,23Z"/><path class="cls-12" d="M142.84,22.68c0,2-3.11,3.69-6.94,3.69s-7-1.65-7-3.69,3.11-3.7,7-3.7S142.84,20.64,142.84,22.68Z"/><rect class="cls-12" x="128.95" y="18.42" width="13.89" height="4.48"/><path class="cls-14" d="M142.84,18.58c0,2-3.11,3.69-6.94,3.69s-7-1.65-7-3.69,3.11-3.7,7-3.7S142.84,16.53,142.84,18.58Z"/><path class="cls-28" d="M142.24,18.42c0,1.86-2.84,3.37-6.34,3.37s-6.34-1.51-6.34-3.37,2.84-3.37,6.34-3.37S142.24,16.56,142.24,18.42Z"/><path class="cls-14" d="M135.9,16.42c2.39,0,4.35,1,4.55,2.22a.78.78,0,0,0,0-.22c0-1.34-2.05-2.43-4.57-2.43s-4.58,1.09-4.58,2.43a1.5,1.5,0,0,0,0,.22C131.54,17.4,133.5,16.42,135.9,16.42Z"/><ellipse class="cls-2" cx="135.9" cy="18.64" rx="4.56" ry="2.22"/><path class="cls-14" d="M135.9,25.07c-3.7,0-6.72-1.55-6.93-3.49,0,.07,0,.14,0,.21,0,2,3.11,3.7,7,3.7s6.95-1.66,6.95-3.7c0-.07,0-.14,0-.21C142.62,23.52,139.6,25.07,135.9,25.07Z"/><path class="cls-14" d="M135.9,23.54c-3.7,0-6.72-1.55-6.93-3.49,0,.07,0,.14,0,.21,0,2,3.11,3.7,7,3.7s6.95-1.66,6.95-3.7c0-.07,0-.14,0-.21C142.62,22,139.6,23.54,135.9,23.54Z"/><path class="cls-12" d="M201.23,84.85a2.27,2.27,0,0,1-.64-.06l.17-.57-.09.29.09-.29A7.71,7.71,0,0,0,206,82.56c2.55-1.91,2.54-7.25,2-9.11-.87-2.89-2.68-2.43-2.76-2.4l-.16-.58s2.44-.67,3.49,2.81c.68,2.24.52,7.72-2.19,9.76A8.78,8.78,0,0,1,201.23,84.85Z"/><path class="cls-14" d="M204.63,87.42a2.86,2.86,0,0,1-1.2,2.28c-.66.38-1.19,0-1.19-.9a2.87,2.87,0,0,1,1.19-2.29C204.09,86.13,204.63,86.54,204.63,87.42Z"/><polygon class="cls-14" points="204.97 86.9 204.15 86.41 202.65 89.77 203.46 90.24 204.97 86.9"/><path class="cls-28" d="M205.46,87.91a2.85,2.85,0,0,1-1.19,2.28c-.67.38-1.2,0-1.2-.9a2.85,2.85,0,0,1,1.2-2.29C204.93,86.62,205.46,87,205.46,87.91Z"/><path class="cls-11" d="M205.12,88.1a2.06,2.06,0,0,1-.85,1.64c-.48.28-.86,0-.86-.65a2,2,0,0,1,.86-1.64C204.74,87.18,205.12,87.47,205.12,88.1Z"/><path class="cls-14" d="M198.52,91.58a1.13,1.13,0,0,1-.48.92c-.26.15-.48,0-.48-.36a1.15,1.15,0,0,1,.48-.92C198.31,91.07,198.52,91.23,198.52,91.58Z"/><polygon class="cls-14" points="198.66 91.38 198.33 91.18 197.73 92.53 198.05 92.72 198.66 91.38"/><path class="cls-28" d="M198.86,91.78a1.19,1.19,0,0,1-.48.92c-.27.15-.48,0-.48-.37a1.12,1.12,0,0,1,.48-.91C198.64,91.26,198.86,91.42,198.86,91.78Z"/><rect class="cls-12" x="189.46" y="86.9" width="1.1" height="0.89"/><path class="cls-12" d="M204.13,86.65a1.71,1.71,0,0,1,.55-.16v-1l-2.48-.1v1l-5.1-3a.43.43,0,0,0-.44,0l-7,4a.45.45,0,0,0,0,.77l7.4,4.27a.43.43,0,0,0,.44,0l5.26-3v-.09A3.18,3.18,0,0,1,204.13,86.65Z"/><path class="cls-28" d="M189.68,87.2l7.4,4.28a.43.43,0,0,0,.44,0l6.93-5.56c.29-.24.3-.6,0-.77L197.1,80.9a.43.43,0,0,0-.44,0l-7,5.53A.45.45,0,0,0,189.68,87.2Z"/><path class="cls-28" d="M200.81,88c0,1.1-1.67,2-3.74,2s-3.75-.89-3.75-2,1.68-2,3.75-2S200.81,86.86,200.81,88Z"/><ellipse class="cls-8" cx="197.08" cy="86" rx="3.83" ry="2.52" transform="translate(-15.57 54.09) rotate(-15.04)"/><polygon class="cls-8" points="200.81 80.01 193.32 80.01 193.32 86.64 200.81 85.43 200.81 80.01"/><polygon class="cls-28" points="193.78 82.03 193.28 82.33 194.67 83.14 195.24 82.81 193.78 82.03"/><path class="cls-8" d="M200.81,79.77a1.18,1.18,0,0,1-.2.65,5.36,5.36,0,0,0-7.09,0,1.18,1.18,0,0,1-.2-.65V81h0a.17.17,0,0,0,0,.07c0,1.1,1.68,2,3.75,2s3.74-.9,3.74-2V81h0Z"/><path class="cls-28" d="M200.81,78.71a1.18,1.18,0,0,1-.2.65,5.33,5.33,0,0,0-7.09,0,1.18,1.18,0,0,1-.2-.65v1.22h0a.22.22,0,0,0,0,.08c0,1.1,1.68,2,3.75,2s3.74-.89,3.74-2v-.08h0Z"/><path class="cls-12" d="M197.24,74.47h-.35A3.59,3.59,0,0,0,193.32,78v.67a1.56,1.56,0,0,0,.79,1.22,6.06,6.06,0,0,0,5.91,0,1.53,1.53,0,0,0,.79-1.22V78A3.58,3.58,0,0,0,197.24,74.47Z"/><path class="cls-12" d="M197.54,90c0,.08,0,.2-.15.26s-.26,0-.3,0,0-.2.15-.26S197.5,89.93,197.54,90Z"/><path class="cls-12" d="M203.18,85.31c0,.08,0,.2-.15.26s-.26,0-.3,0,0-.2.15-.26S203.14,85.23,203.18,85.31Z"/><path class="cls-12" d="M191.37,86.44c0,.09,0,.2-.15.26s-.26,0-.3,0,0-.19.15-.25S191.33,86.36,191.37,86.44Z"/><polygon class="cls-12" points="193.41 83.98 194.8 84.8 194.67 83.14 193.28 82.33 193.41 83.98"/><polygon class="cls-12" points="195.25 82.8 194.67 83.14 194.8 84.8 195.25 84.56 195.25 82.8"/><path class="cls-2" d="M194.1,83.37a.3.3,0,0,0-.4.13,7.63,7.63,0,0,1-2.41,2.75,2,2,0,0,1-2,.13,1,1,0,0,1-.21-1c.55-2.39,4.25-2.32,4.25-2.32s-.05-.59-.05-.59c-.18,0-4.12-.1-4.78,2.77a1.51,1.51,0,0,0,.42,1.65,1.72,1.72,0,0,0,1.08.33,3.65,3.65,0,0,0,1.54-.39,8.07,8.07,0,0,0,2.69-3A.31.31,0,0,0,194.1,83.37Z"/><path class="cls-11" d="M201.91,85.83a.29.29,0,0,1-.3-.3V77A4,4,0,0,1,203,73.65c.19-.18.28-.33.26-.46,0-.35-.85-.81-1.78-1.35l-.75-.44a1.51,1.51,0,0,0-2.18.17,3.22,3.22,0,0,0-1.14,2.9h-.6a3.86,3.86,0,0,1,1.33-3.34,2.08,2.08,0,0,1,2.89-.24l.74.43c1.21.7,2,1.16,2.09,1.8a1.17,1.17,0,0,1-.45,1A3.38,3.38,0,0,0,202.2,77v8.51A.29.29,0,0,1,201.91,85.83Z"/><path class="cls-29" d="M205.14,70.4a.93.93,0,0,0,.4.76c.22.13.4,0,.4-.3a1,1,0,0,0-.4-.76C205.32,70,205.14,70.11,205.14,70.4Z"/><polygon class="cls-29" points="205.03 70.23 205.29 70.08 205.8 71.18 205.54 71.35 205.03 70.23"/><path class="cls-11" d="M204.89,70.56a1,1,0,0,0,.4.76c.22.13.4,0,.4-.3a.93.93,0,0,0-.4-.76C205.07,70.13,204.89,70.26,204.89,70.56Z"/><path class="cls-2" d="M201,72.89a3.36,3.36,0,0,0-1.25,1.39c-.05.08-.45.92-.59,1.28h0l-5.69,12.81a.25.25,0,0,0,.14.34h0a.26.26,0,0,0,.34-.13l6-13.41A3.37,3.37,0,0,1,201,73.64l4.33-2.5s.13-.11,0-.38-.22-.27-.31-.21Z"/><path class="cls-11" d="M194.89,90.54s.05-.26.07-.38-.25-.43-.25-.43l-.24.37Z"/><polygon class="cls-11" points="194.75 90.27 191.69 88.49 189.83 90.18 194.22 92.7 194.75 90.27"/><polygon class="cls-12" points="189.83 90.18 189.56 90.51 194.03 93.19 194.22 92.7 189.83 90.18"/><polygon class="cls-29" points="194.75 90.27 194.89 90.54 194.37 92.93 194.22 92.7 194.75 90.27"/><polygon class="cls-12" points="194.22 92.7 194.03 93.19 194.22 93.39 194.37 92.93 194.22 92.7"/><polygon class="cls-28" points="189.56 90.51 189.73 90.71 194.22 93.39 194.03 93.19 189.56 90.51"/><path class="cls-9" d="M191.68,88.49l3.07,1.78s.11-.36,0-.5a5.35,5.35,0,0,0-.85-.53c-.18-.13,0-.61,0-.61l-.47-.25s-.21.34-.37.34-1-.55-1.07-.51A1.69,1.69,0,0,0,191.68,88.49Z"/><path class="cls-2" d="M197.07,75.45a1.76,1.76,0,0,1,1.42.54.51.51,0,0,0,.09-.26c0-.45-.68-.81-1.51-.81s-1.52.36-1.52.81a.51.51,0,0,0,.09.26A1.78,1.78,0,0,1,197.07,75.45Z"/><ellipse class="cls-28" cx="197.07" cy="75.99" rx="1.42" ry="0.54"/><path class="cls-8" d="M193.75,79a.4.4,0,0,0,.17.33c.1,0,.17,0,.17-.13a.39.39,0,0,0-.17-.33C193.82,78.79,193.75,78.85,193.75,79Z"/><path class="cls-8" d="M194.35,79.34a.41.41,0,0,0,.17.33c.1.06.18,0,.18-.13a.41.41,0,0,0-.18-.33C194.43,79.16,194.35,79.21,194.35,79.34Z"/><polygon class="cls-12" points="200.32 82.09 199.12 82.79 199.12 82.45 200.32 81.75 200.32 82.09"/><polygon class="cls-12" points="200.32 82.72 199.12 83.42 199.12 83.08 200.32 82.38 200.32 82.72"/><polygon class="cls-12" points="200.32 83.31 199.12 84.01 199.12 83.67 200.32 82.97 200.32 83.31"/><polygon class="cls-12" points="200.32 83.94 199.12 84.64 199.12 84.3 200.32 83.6 200.32 83.94"/><path class="cls-2" d="M134.35,121.46a2.19,2.19,0,0,0,.92,1.75c.5.29.91,0,.91-.69a2.19,2.19,0,0,0-.91-1.75C134.76,120.47,134.35,120.78,134.35,121.46Z"/><polygon class="cls-2" points="134 121.11 134.71 120.7 135.87 123.26 135.13 123.68 134 121.11"/><path class="cls-12" d="M133.61,121.89a2.19,2.19,0,0,0,.92,1.75c.5.29.91,0,.91-.7a2.22,2.22,0,0,0-.91-1.75C134,120.9,133.61,121.21,133.61,121.89Z"/><path class="cls-13" d="M134,122.15a1.1,1.1,0,0,0,.47.88c.25.15.46,0,.46-.35a1.12,1.12,0,0,0-.46-.88C134.21,121.65,134,121.81,134,122.15Z"/><path class="cls-11" d="M135.54,120.83v1.51a5.14,5.14,0,0,1-.78.32c-.41.14-.58-.24-.45-.75a15,15,0,0,1,.51-1.49Z"/><polygon class="cls-8" points="135.54 120.83 136.28 120.41 136.28 121.92 135.54 122.34 135.54 120.83"/><polygon class="cls-9" points="136.12 120.25 135.54 120.58 134.96 120.24 134.82 120.42 135.54 120.83 136.28 120.41 136.12 120.25"/><path class="cls-2" d="M149.85,112.54a2.22,2.22,0,0,0,.92,1.75c.51.29.92,0,.92-.69a2.17,2.17,0,0,0-.92-1.75C150.27,111.55,149.85,111.86,149.85,112.54Z"/><polygon class="cls-2" points="149.51 112.19 150.22 111.78 151.37 114.34 150.63 114.76 149.51 112.19"/><path class="cls-12" d="M149.11,113a2.19,2.19,0,0,0,.92,1.75c.51.29.92,0,.92-.7a2.2,2.2,0,0,0-.92-1.75C149.52,112,149.11,112.29,149.11,113Z"/><path class="cls-13" d="M149.51,113.23a1.09,1.09,0,0,0,.46.88c.25.15.46,0,.46-.35a1.12,1.12,0,0,0-.46-.88C149.71,112.73,149.51,112.89,149.51,113.23Z"/><path class="cls-11" d="M151,111.91v1.51a5.3,5.3,0,0,1-.77.32c-.42.14-.58-.24-.45-.75a13.44,13.44,0,0,1,.5-1.49Z"/><polygon class="cls-8" points="151.04 111.91 151.79 111.49 151.79 113 151.04 113.42 151.04 111.91"/><polygon class="cls-9" points="151.62 111.33 151.04 111.66 150.46 111.32 150.32 111.5 151.04 111.91 151.79 111.49 151.62 111.33"/><path class="cls-2" d="M127.33,117.35a2.19,2.19,0,0,0,.92,1.75c.51.29.92,0,.92-.69a2.21,2.21,0,0,0-.92-1.76C127.74,116.36,127.33,116.67,127.33,117.35Z"/><polygon class="cls-2" points="126.99 117 127.69 116.58 128.85 119.15 128.11 119.57 126.99 117"/><path class="cls-12" d="M126.59,117.78a2.2,2.2,0,0,0,.92,1.75c.51.29.92,0,.92-.7a2.19,2.19,0,0,0-.92-1.75C127,116.79,126.59,117.1,126.59,117.78Z"/><path class="cls-13" d="M127,118a1.09,1.09,0,0,0,.46.88c.25.15.46,0,.46-.35a1.12,1.12,0,0,0-.46-.88C127.19,117.54,127,117.7,127,118Z"/><path class="cls-11" d="M128.52,116.72v1.51a7,7,0,0,1-.77.32c-.42.14-.59-.24-.45-.75a13.44,13.44,0,0,1,.5-1.49Z"/><polygon class="cls-8" points="128.52 116.72 129.26 116.3 129.26 117.81 128.52 118.23 128.52 116.72"/><polygon class="cls-9" points="129.1 116.13 128.52 116.47 127.94 116.13 127.8 116.31 128.52 116.72 129.26 116.3 129.1 116.13"/><polygon class="cls-3" points="127.97 100.92 135.73 105.39 135.73 120.67 127.97 116.21 127.97 100.92"/><polygon class="cls-4" points="151.52 96.29 135.73 105.39 135.73 120.67 151.52 111.58 151.52 96.29"/><polygon class="cls-12" points="140.7 100.21 147.47 96.3 147.47 96.91 140.7 100.81 140.7 100.21"/><polygon class="cls-13" points="136.1 105.85 151.16 97.2 151.16 99 136.1 107.63 136.1 105.85"/><polygon class="cls-3" points="135.73 108.32 151.52 99.21 151.52 99.69 135.73 108.77 135.73 108.32"/><polygon class="cls-12" points="140.7 103.62 147.47 99.72 147.47 100.32 140.7 104.22 140.7 103.62"/><polygon class="cls-13" points="136.1 109.08 151.16 100.43 151.16 102.23 136.1 110.85 136.1 109.08"/><polygon class="cls-3" points="135.73 111.54 151.52 102.44 151.52 102.92 135.73 112 135.73 111.54"/><polygon class="cls-12" points="140.7 106.85 147.47 102.94 147.47 103.55 140.7 107.44 140.7 106.85"/><polygon class="cls-13" points="136.1 117.18 151.16 108.54 151.16 110.85 136.1 119.48 136.1 117.18"/><polygon class="cls-12" points="140.7 114.95 147.47 111.05 147.47 111.66 140.7 115.55 140.7 114.95"/><polygon class="cls-13" points="136.1 112.38 151.16 103.73 151.16 106.76 136.1 115.39 136.1 112.38"/><polygon class="cls-12" points="140.7 110.14 147.47 106.24 147.47 106.85 140.7 110.74 140.7 110.14"/><polygon class="cls-3" points="135.73 116.32 151.52 107.22 151.52 107.69 135.73 116.78 135.73 116.32"/><polygon class="cls-18" points="151.52 96.29 135.73 105.39 127.97 100.92 143.78 91.85 151.52 96.29"/><polygon class="cls-8" points="135.73 120.67 151.79 111.42 151.79 111.9 135.73 121.15 135.73 120.67"/><polygon class="cls-9" points="135.73 120.37 151.52 111.26 151.79 111.42 135.73 120.68 135.73 120.37"/><polygon class="cls-11" points="135.73 120.67 127.7 116.05 127.7 116.53 135.73 121.15 135.73 120.67"/><polygon class="cls-8" points="128.37 101.87 135.15 105.77 135.15 106.56 128.37 102.66 128.37 101.87"/><polygon class="cls-9" points="135.73 120.37 127.97 115.89 127.7 116.05 135.73 120.68 135.73 120.37"/><path class="cls-12" d="M134.61,105.9a.35.35,0,0,0,.13.26c.08,0,.14,0,.14-.11a.31.31,0,0,0-.14-.25C134.67,105.76,134.61,105.8,134.61,105.9Z"/><path class="cls-12" d="M128.77,102.46a.31.31,0,0,0,.14.26c.07,0,.13,0,.13-.1a.35.35,0,0,0-.13-.26C128.83,102.32,128.77,102.37,128.77,102.46Z"/><path class="cls-2" d="M137.28,98.85s-1.17-.71-2.56-1.4a1.1,1.1,0,0,0-1-.07,1.51,1.51,0,0,0-.7.62c-.17.1-.44.25-.6.36a2.51,2.51,0,0,1,1.16-1.31,1.46,1.46,0,0,1,1.25.09c1.41.7,2.58,1.4,2.59,1.41Z"/><path class="cls-2" d="M141.3,93.77l-6.6,3.81c-.15.08-.27,0-.27-.2V92.11a.62.62,0,0,1,.27-.51l6.6-3.81c.14-.09.27,0,.27.2v5.27A.65.65,0,0,1,141.3,93.77Z"/><polygon class="cls-2" points="134.53 97.6 134.88 97.8 134.85 97.39 134.53 97.6"/><polygon class="cls-2" points="141.83 87.98 141.47 87.77 141.34 88.47 141.83 87.98"/><path class="cls-12" d="M141.66,94l-6.6,3.81c-.15.08-.27,0-.27-.21V92.31a.65.65,0,0,1,.27-.51l6.6-3.81c.15-.08.27,0,.27.21v5.27A.65.65,0,0,1,141.66,94Z"/><polygon class="cls-2" points="141.7 93.38 135.03 97.23 135.03 92.12 141.7 88.27 141.7 93.38"/><path class="cls-8" d="M138.79,95.45l-.85.49c-.05,0-.08,0-.08-.06h0a.19.19,0,0,1,.08-.16l.85-.49s.07,0,.07.06h0A.22.22,0,0,1,138.79,95.45Z"/><polygon class="cls-8" points="141.34 93.58 135.36 97.03 135.36 92.38 141.34 88.93 141.34 93.58"/><path class="cls-2" d="M147.13,97.84l-6.37,3.68a.76.76,0,0,1-.67,0l-4.87-2.81c-.2-.12-.22-.29-.05-.39l6.37-3.68a.76.76,0,0,1,.67,0l4.87,2.81C147.28,97.57,147.3,97.74,147.13,97.84Z"/><rect class="cls-2" x="135.06" y="98.03" width="0.44" height="0.44"/><rect class="cls-2" x="146.81" y="97.25" width="0.44" height="0.44"/><path class="cls-12" d="M147.13,97.44l-6.37,3.67a.75.75,0,0,1-.67,0l-4.87-2.82c-.2-.11-.22-.28-.05-.38l6.37-3.68a.73.73,0,0,1,.67,0l4.87,2.81C147.28,97.16,147.3,97.34,147.13,97.44Z"/><polygon class="cls-2" points="145.12 96.3 138.81 99.94 135.6 98.09 141.92 94.45 145.12 96.3"/><polygon class="cls-2" points="144.77 98.46 142.53 99.75 141.34 99.06 143.57 97.77 144.77 98.46"/><polygon class="cls-13" points="135.88 98.09 136.32 97.83 136.64 98.02 136.2 98.27 135.88 98.09"/><polygon class="cls-13" points="136.34 98.35 136.78 98.1 137.1 98.28 136.66 98.54 136.34 98.35"/><polygon class="cls-13" points="136.8 98.62 137.4 98.28 137.71 98.46 137.12 98.8 136.8 98.62"/><polygon class="cls-13" points="142.5 95.33 142.79 95.16 143.57 95.61 143.28 95.78 142.5 95.33"/><polygon class="cls-13" points="137.26 98.89 137.86 98.54 138.17 98.72 137.58 99.07 137.26 98.89"/><polygon class="cls-13" points="137.72 99.15 138.51 98.7 138.83 98.88 138.04 99.33 137.72 99.15"/><polygon class="cls-13" points="142.54 96.37 143.72 95.69 144.04 95.87 142.86 96.55 142.54 96.37"/><polygon class="cls-13" points="138.18 99.42 138.63 99.16 138.94 99.34 138.5 99.6 138.18 99.42"/><polygon class="cls-13" points="136.43 97.77 136.87 97.51 137.19 97.7 136.75 97.95 136.43 97.77"/><polygon class="cls-13" points="136.89 98.03 137.33 97.78 137.65 97.96 137.21 98.22 136.89 98.03"/><polygon class="cls-13" points="136.99 97.45 137.43 97.19 137.75 97.38 137.31 97.63 136.99 97.45"/><polygon class="cls-13" points="137.45 97.71 137.89 97.46 138.21 97.64 137.77 97.9 137.45 97.71"/><polygon class="cls-13" points="137.54 97.13 137.98 96.87 138.3 97.06 137.86 97.31 137.54 97.13"/><polygon class="cls-13" points="138 97.39 138.44 97.14 138.76 97.32 138.32 97.58 138 97.39"/><polygon class="cls-13" points="138.09 96.81 138.53 96.55 138.85 96.74 138.41 96.99 138.09 96.81"/><polygon class="cls-13" points="138.56 97.07 139 96.82 139.31 97 138.87 97.26 138.56 97.07"/><polygon class="cls-13" points="138.65 96.49 139.09 96.23 139.4 96.42 138.96 96.67 138.65 96.49"/><polygon class="cls-13" points="139.11 96.76 139.55 96.5 139.86 96.68 139.42 96.94 139.11 96.76"/><polygon class="cls-13" points="139.2 96.17 139.64 95.91 139.96 96.1 139.52 96.35 139.2 96.17"/><polygon class="cls-13" points="139.66 96.43 140.1 96.18 140.42 96.36 139.98 96.62 139.66 96.43"/><polygon class="cls-13" points="137.52 98.2 137.96 97.95 138.28 98.13 137.84 98.39 137.52 98.2"/><polygon class="cls-13" points="137.98 98.47 138.42 98.22 138.74 98.4 138.3 98.65 137.98 98.47"/><polygon class="cls-13" points="138.08 97.88 138.52 97.63 138.84 97.81 138.4 98.06 138.08 97.88"/><polygon class="cls-13" points="138.54 98.15 138.98 97.89 139.3 98.08 138.86 98.33 138.54 98.15"/><polygon class="cls-13" points="138.63 97.56 139.07 97.31 139.39 97.49 138.95 97.75 138.63 97.56"/><polygon class="cls-13" points="139.09 97.83 139.53 97.58 139.85 97.76 139.41 98.01 139.09 97.83"/><polygon class="cls-13" points="139.19 97.24 139.63 96.99 139.94 97.17 139.5 97.43 139.19 97.24"/><polygon class="cls-13" points="139.65 97.51 140.09 97.25 140.4 97.44 139.96 97.69 139.65 97.51"/><polygon class="cls-13" points="139.74 96.92 140.18 96.67 140.49 96.85 140.05 97.11 139.74 96.92"/><polygon class="cls-13" points="140.2 97.19 140.64 96.94 140.96 97.12 140.51 97.37 140.2 97.19"/><polygon class="cls-13" points="140.29 96.6 140.73 96.35 141.05 96.53 140.61 96.79 140.29 96.6"/><polygon class="cls-13" points="140.75 96.87 141.19 96.61 141.51 96.8 141.07 97.05 140.75 96.87"/><polygon class="cls-13" points="140.85 96.28 141.29 96.03 141.6 96.21 141.16 96.47 140.85 96.28"/><polygon class="cls-13" points="141.31 96.55 141.75 96.3 142.06 96.48 141.62 96.73 141.31 96.55"/><polygon class="cls-13" points="138.66 98.61 139.1 98.35 139.42 98.54 138.98 98.79 138.66 98.61"/><polygon class="cls-13" points="139.22 98.29 139.66 98.03 139.98 98.22 139.54 98.47 139.22 98.29"/><polygon class="cls-13" points="139.77 97.97 140.21 97.71 140.53 97.9 140.09 98.15 139.77 97.97"/><polygon class="cls-13" points="140.32 97.65 140.77 97.39 141.08 97.58 140.64 97.83 140.32 97.65"/><polygon class="cls-13" points="140.88 97.33 141.32 97.08 141.63 97.26 141.19 97.51 140.88 97.33"/><polygon class="cls-13" points="141.43 97.01 141.87 96.75 142.19 96.94 141.75 97.19 141.43 97.01"/><polygon class="cls-13" points="141.99 96.69 142.43 96.44 142.75 96.62 142.3 96.87 141.99 96.69"/><polygon class="cls-13" points="141.4 95.96 141.84 95.71 142.16 95.89 141.72 96.14 141.4 95.96"/><polygon class="cls-13" points="141.86 96.23 142.3 95.97 142.62 96.16 142.18 96.41 141.86 96.23"/><polygon class="cls-13" points="141.95 95.64 142.4 95.39 142.71 95.57 142.27 95.83 141.95 95.64"/><polygon class="cls-13" points="142.41 95.91 142.86 95.66 143.17 95.84 142.73 96.09 142.41 95.91"/><polygon class="cls-13" points="139.75 95.85 140.19 95.59 140.51 95.78 140.07 96.03 139.75 95.85"/><polygon class="cls-13" points="140.22 96.12 140.66 95.86 140.97 96.05 140.53 96.3 140.22 96.12"/><polygon class="cls-13" points="140.32 95.52 140.76 95.27 141.08 95.45 140.63 95.71 140.32 95.52"/><polygon class="cls-13" points="140.78 95.79 141.22 95.54 141.54 95.72 141.1 95.97 140.78 95.79"/><polygon class="cls-13" points="140.87 95.21 141.31 94.95 141.63 95.14 141.19 95.39 140.87 95.21"/><polygon class="cls-13" points="141.33 95.47 141.77 95.22 142.09 95.4 141.65 95.66 141.33 95.47"/><polygon class="cls-13" points="141.43 94.89 141.87 94.63 142.18 94.81 141.74 95.07 141.43 94.89"/><polygon class="cls-13" points="141.89 95.15 142.33 94.9 142.65 95.08 142.2 95.33 141.89 95.15"/><polygon class="cls-13" points="138.74 99.1 139.18 98.84 139.49 99.03 139.05 99.28 138.74 99.1"/><polygon class="cls-13" points="139.29 98.78 139.73 98.52 140.05 98.71 139.61 98.96 139.29 98.78"/><polygon class="cls-13" points="142.19 97.11 142.63 96.86 142.95 97.04 142.51 97.29 142.19 97.11"/><polygon class="cls-13" points="142.74 96.79 143.18 96.54 143.5 96.72 143.06 96.97 142.74 96.79"/><polygon class="cls-13" points="143.3 96.47 144.16 95.99 144.48 96.17 143.62 96.65 143.3 96.47"/><polygon class="cls-13" points="139.85 98.45 142.07 97.17 142.39 97.35 140.17 98.64 139.85 98.45"/><polygon class="cls-13" points="136.11 99.1 135.48 98.74 135.48 98.54 136.11 98.9 136.11 99.1"/><polygon class="cls-13" points="136.84 99.52 136.21 99.16 136.21 98.95 136.84 99.32 136.84 99.52"/><polygon class="cls-10" points="141.05 90.36 135.84 93.37 135.84 93.57 141.05 90.57 141.05 90.36"/><polygon class="cls-10" points="141.05 91.45 135.84 94.46 135.84 94.66 141.05 91.66 141.05 91.45"/><polygon class="cls-10" points="141.05 92.58 135.84 95.58 135.84 95.79 141.05 92.78 141.05 92.58"/><polygon class="cls-12" points="136.04 96.23 135.86 96.34 135.86 92.68 136.04 92.58 136.04 96.23"/><path class="cls-12" d="M144.13,116.78c.36-.23,2.2.84,2.2.84l2.54.86-.19,1.91a1.65,1.65,0,0,1-2.16.12,7.48,7.48,0,0,1-2.47-2.14C143.64,117.52,143.77,117,144.13,116.78Z"/><path class="cls-2" d="M147.55,109.76c.48-1.57.86-2.21,1.88-2.61a7.84,7.84,0,0,1,3.41.26,5.86,5.86,0,0,1-.68,3.84l-1.42-.77a8.62,8.62,0,0,0-.49,1.72,34.87,34.87,0,0,0-.51,3.55c-.05,1-.14,2.52-.14,2.52a2.48,2.48,0,0,1-2.38.37,1.47,1.47,0,0,1-1-1.68S147.21,110.89,147.55,109.76Z"/><path class="cls-6" d="M158.9,99.46a7.64,7.64,0,0,1,1,3.43c-.14,1.46-2.58,2.75-2.58,2.75L155.81,101Z"/><path class="cls-12" d="M153.69,114a.85.85,0,0,1,.84.84v7.79a.84.84,0,0,1-1.68,0v-7.79A.85.85,0,0,1,153.69,114Z"/><path class="cls-8" d="M153.69,112.32c2.95,0,5.34,1.28,5.34,2.84s-2.39,2.84-5.34,2.84-5.34-1.27-5.34-2.84S150.74,112.32,153.69,112.32Z"/><rect class="cls-8" x="148.35" y="114.63" width="10.68" height="0.62"/><path class="cls-9" d="M153.69,111.79c2.95,0,5.34,1.27,5.34,2.84s-2.39,2.84-5.34,2.84-5.34-1.27-5.34-2.84S150.74,111.79,153.69,111.79Z"/><path class="cls-30" d="M153.69,111.61c2.81,0,5.09,1.22,5.09,2.71S156.5,117,153.69,117s-5.09-1.22-5.09-2.71S150.88,111.61,153.69,111.61Z"/><polygon class="cls-30" points="158.51 112.58 158.78 114.32 148.6 114.32 148.87 112.58 158.51 112.58"/><path class="cls-10" d="M153.69,110.41c2.7,0,4.89,1.17,4.89,2.6s-2.19,2.6-4.89,2.6-4.89-1.16-4.89-2.6S151,110.41,153.69,110.41Z"/><path class="cls-10" d="M153.69,110.41c2.7,0,4.89,1.17,4.89,2.6s-2.19,2.6-4.89,2.6-4.89-1.16-4.89-2.6S151,110.41,153.69,110.41Z"/><path class="cls-12" d="M159.41,126.9a1.71,1.71,0,0,1,.71,1.36c0,.52-.32.76-.71.54a1.69,1.69,0,0,1-.71-1.36C158.7,126.91,159,126.67,159.41,126.9Z"/><polygon class="cls-12" points="159.87 128.83 159.3 129.16 158.43 127.17 158.98 126.85 159.87 128.83"/><path class="cls-2" d="M158.83,127.23a1.72,1.72,0,0,1,.71,1.36c0,.52-.32.76-.71.54a1.72,1.72,0,0,1-.71-1.36C158.12,127.25,158.44,127,158.83,127.23Z"/><path class="cls-12" d="M148.37,119.83l11.23,6.48a.6.6,0,0,1,.22.81.59.59,0,0,1-.81.21l-11.23-6.48a.6.6,0,0,1-.22-.81A.59.59,0,0,1,148.37,119.83Z"/><path class="cls-12" d="M147.78,126.31,159,119.83a.59.59,0,0,1,.81.21.6.6,0,0,1-.22.81l-11.23,6.48a.59.59,0,0,1-.81-.21A.6.6,0,0,1,147.78,126.31Z"/><path class="cls-12" d="M148.4,120.41a1.72,1.72,0,0,1,.71,1.36c0,.53-.32.77-.71.54a1.72,1.72,0,0,1-.71-1.36C147.69,120.43,148,120.19,148.4,120.41Z"/><polygon class="cls-12" points="148.86 122.35 148.29 122.68 147.42 120.68 147.97 120.36 148.86 122.35"/><path class="cls-2" d="M147.82,120.75a1.66,1.66,0,0,1,.71,1.35c0,.53-.31.77-.71.54a1.71,1.71,0,0,1-.71-1.36C147.11,120.76,147.43,120.52,147.82,120.75Z"/><path class="cls-12" d="M149.09,127.07a1.69,1.69,0,0,1,.71,1.35c0,.53-.32.77-.71.54a1.71,1.71,0,0,1-.71-1.36C148.38,127.08,148.7,126.84,149.09,127.07Z"/><polygon class="cls-12" points="149.55 129 148.98 129.33 148.11 127.33 148.66 127.01 149.55 129"/><path class="cls-2" d="M148.52,127.4a1.69,1.69,0,0,1,.71,1.36c0,.52-.32.76-.71.53a1.66,1.66,0,0,1-.71-1.35C147.81,127.41,148.12,127.17,148.52,127.4Z"/><path class="cls-12" d="M159.86,120.78a1.72,1.72,0,0,1,.71,1.36c0,.52-.32.77-.71.54a1.7,1.7,0,0,1-.72-1.36C159.14,120.8,159.46,120.56,159.86,120.78Z"/><polygon class="cls-12" points="160.32 122.72 159.75 123.05 158.88 121.05 159.42 120.73 160.32 122.72"/><path class="cls-2" d="M159.28,121.12a1.69,1.69,0,0,1,.71,1.35c0,.53-.32.77-.71.54a1.71,1.71,0,0,1-.71-1.36C158.57,121.13,158.89,120.89,159.28,121.12Z"/><path class="cls-12" d="M141.25,118.5c.37-.23,2.2.84,2.2.84l2.54.86-.19,1.91a1.65,1.65,0,0,1-2.16.12,7.48,7.48,0,0,1-2.47-2.14C140.76,119.24,140.89,118.73,141.25,118.5Z"/><path class="cls-31" d="M159,102.16,160.8,105s-.54.59-2.27-.28a14.69,14.69,0,0,0-3.18-1.24l.33-1.52Z"/><path class="cls-11" d="M157.66,101.76l-.77-1.44L156.21,97a2.13,2.13,0,0,1,2,.29,13.26,13.26,0,0,1,1.88,3.27A4.24,4.24,0,0,1,157.66,101.76Z"/><path class="cls-6" d="M153.9,91.26a1.89,1.89,0,0,1,2.7.92c.34.71-.13,2.6-.21,3.93a3.23,3.23,0,0,0,.3,1.69l-.92.38a2.74,2.74,0,0,1-1.87,0l0-1.64a4.35,4.35,0,0,1-1.17-.3c-.41-.38-.63-1.52-.44-3C152.61,91.07,153.63,91.44,153.9,91.26Z"/><path class="cls-2" d="M144.67,111.48c.48-1.57.86-2.21,1.88-2.61,1.47-.59,7.67,1.41,7.67,1.41l4.47.23a3.14,3.14,0,0,1-1.05,2.74c-1.28.93-4.34,1.85-6.55.69-1.06-.55-2.21-1.18-3.23-1.74a9.24,9.24,0,0,0-.49,1.73,31.74,31.74,0,0,0-.5,3.54c-.05,1-.15,2.52-.15,2.52a2.48,2.48,0,0,1-2.38.37,1.47,1.47,0,0,1-1-1.68S144.33,112.61,144.67,111.48Z"/><path class="cls-8" d="M151.42,103c-.55-1.15.68-3.26,1-4a3.09,3.09,0,0,1,1.45-1.22l3.35-.49a15.58,15.58,0,0,1,1.66,4.07c.13,1.06,0,3,0,5.73,0,1.83,1,3,.24,3.76a6.68,6.68,0,0,1-5.36,1.65c-.9-.24-1.52-1.17-2.12-1.91s-1-2.76-.16-3.57C151.59,107,152.52,105.35,151.42,103Z"/><path class="cls-22" d="M153.91,97.29a2.77,2.77,0,0,0,2.13-.22c1.12-.87,1.24.35,1.24.35a2.93,2.93,0,0,1-1.41,1,3.38,3.38,0,0,1-2.69-.21C153.17,97.56,153.91,97.29,153.91,97.29Z"/><path class="cls-6" d="M142.74,99.38c.34,0,.24-.58.38-.84s.33-.35.38-.07c.14.69.42,2.17.74,2.34a23.62,23.62,0,0,1,3.58,2.37s4-4.28,5-4c.54.13.75,1.26.28,2.43-.59,1.49-4.62,4.4-4.62,4.4-1.27.26-4.41-3-5.06-3.68a17,17,0,0,0-2.19-1.49c-.8-.61-1.4-1.43-1.09-2.17.17-.42.66-.14,1.22.19A3,3,0,0,0,142.74,99.38Z"/><path class="cls-11" d="M151,104.29c-1.33-.41-2.33-1.49-1.74-3,1.16-1.11,2.4-2.44,3.61-2.42.61,0,1,1.7.38,3A9.58,9.58,0,0,1,151,104.29Z"/><path class="cls-2" d="M153,93.83c-.11-.37-.36-1.22-.43-1.56a1.67,1.67,0,0,1,.45-1.55,3.55,3.55,0,0,1,3.11-.36,2.82,2.82,0,0,1,1.63,3.47c-.41,1.9-.81,2.11-1.38,2.56a3.23,3.23,0,0,1-1.39.48,1.62,1.62,0,0,1-.58-1.07,8.88,8.88,0,0,1,0-.91s.5-1,.11-1.35-.83.22-.93.46a6.72,6.72,0,0,0-.17,2.45,1.45,1.45,0,0,1-1,.2c-.27-.07,0-1.13,0-1.13S152.92,95.25,153,93.83Z"/><path class="cls-30" d="M159.13,102l1.52-.88c1.61-.93,2.92.07,2.92,2.21v6.11l-7.36,4.25v-6.11A7,7,0,0,1,159.13,102Z"/><polygon class="cls-30" points="162.72 102.43 162.59 100.95 163.84 101.69 162.72 102.43"/><polygon class="cls-30" points="157.43 114.37 156.21 113.65 157.65 112.23 157.43 114.37"/><path class="cls-10" d="M160.34,102.68l1.53-.88c1.6-.93,2.92.07,2.92,2.21v6.11l-7.36,4.25v-6.11A7,7,0,0,1,160.34,102.68Z"/><path class="cls-12" d="M161.06,112.1c-.05-2,0-3.66,0-4.33,0-.87,1-.91,1,0,0,1.3.13,4.08.11,4.72,0,1.4.82,5.78-4.75,5.94a11.6,11.6,0,0,1-3.24-.4,9.46,9.46,0,0,0,3.74-1.07C161.5,116.59,161.11,113.83,161.06,112.1Z"/></svg>